<?xml version="1.0" encoding="UTF-8"?>
<svg version="1.1" xmlns="http://www.w3.org/2000/svg" width="512" height="512">
<path d="M0 0 C168.96 0 337.92 0 512 0 C512 168.96 512 337.92 512 512 C343.04 512 174.08 512 0 512 C0 343.04 0 174.08 0 0 Z " fill="#B2C5FD" transform="translate(0,0)"/>
<path d="M0 0 C12.17625382 11.34479491 18.16334497 25.78732494 19.21875 42.296875 C19.67466409 60.3054814 16.11767744 76.4487796 5 90.875 C4.50371094 91.52597656 4.00742188 92.17695313 3.49609375 92.84765625 C-3.9111249 102.03099272 -14.29190568 108.02025239 -26 109.875 C-33.58782279 110.2608215 -41.23629646 109.5671134 -48 105.875 C-48 105.215 -48 104.555 -48 103.875 C-49.10214844 103.73384766 -49.10214844 103.73384766 -50.2265625 103.58984375 C-58.80008468 101.3800486 -64.54741876 91.94811082 -69 84.875 C-69.61875 83.91207031 -69.61875 83.91207031 -70.25 82.9296875 C-74.2052649 76.44421637 -75.31904526 69.50988247 -76.53515625 62.1328125 C-76.77586346 59.91580635 -76.77586346 59.91580635 -78 58.875 C-78.45546622 50.07285049 -78.45319469 41.39041618 -76 32.875 C-75.81695312 32.21209961 -75.63390625 31.54919922 -75.4453125 30.86621094 C-72.56410832 20.62637573 -69.43293603 12.73043976 -62 4.875 C-61.2575 3.84375 -60.515 2.8125 -59.75 1.75 C-42.92593867 -15.83879139 -18.00114277 -15.4217935 0 0 Z " fill="#010203" transform="translate(167,188.125)"/>
<path d="M0 0 C0.733396 -0.00128906 1.46679199 -0.00257813 2.22241211 -0.00390625 C9.25654903 0.13041165 15.31061175 1.81774266 21.875 4.375 C21.875 5.035 21.875 5.695 21.875 6.375 C22.57625 6.601875 23.2775 6.82875 24 7.0625 C35.15542223 12.15519276 42.5343497 24.38139037 46.875 35.375 C50.37987254 46.23349192 50.40854296 57.10541376 49.875 68.375 C49.81699219 69.68984375 49.75898438 71.0046875 49.69921875 72.359375 C48.40357264 87.15783898 40.83050535 101.04730327 29.98046875 111.13671875 C20.77386005 118.58075878 9.7061795 122.53839932 -2.125 121.375 C-17.31315517 117.18298491 -30.10574064 107.89225056 -38.125 94.375 C-46.50875583 77.33149853 -49.0591843 56.61388998 -43.125 38.375 C-42.84140625 37.47136719 -42.5578125 36.56773437 -42.265625 35.63671875 C-37.36646784 21.47643556 -28.77208678 9.33547068 -15.125 2.375 C-10.06415629 0.61339053 -5.32801976 -0.00980429 0 0 Z " fill="#010102" transform="translate(369.125,176.625)"/>
<path d="M0 0 C0.82564453 0.00563965 1.65128906 0.0112793 2.50195312 0.01708984 C15.20264799 0.26434701 28.14904841 2.19925692 37.875 11.08203125 C42.5694174 16.26168891 44.45950411 20.96729077 44.23828125 27.9765625 C43.57466444 33.13036578 41.74893491 36.80350715 37.73828125 40.14453125 C31.67666862 44.3125 31.67666862 44.3125 28.9375 44.3125 C28.9375 44.9725 28.9375 45.6325 28.9375 46.3125 C16.314745 50.53516595 5.22780288 51.97554172 -8.0625 51.3125 C-8.0625 50.6525 -8.0625 49.9925 -8.0625 49.3125 C-8.70316406 49.27511719 -9.34382813 49.23773438 -10.00390625 49.19921875 C-20.46012389 48.40448388 -28.46832733 44.51116907 -35.4375 36.625 C-39.5684658 30.7463179 -40.11221607 26.45237915 -39.0625 19.3125 C-37.50041315 16.16296775 -35.52628562 13.79888916 -33.0625 11.3125 C-32.14984375 10.29542969 -32.14984375 10.29542969 -31.21875 9.2578125 C-28.71650393 7.00035137 -26.4343436 5.94109004 -23.3125 4.6875 C-22.32765625 4.28273438 -21.3428125 3.87796875 -20.328125 3.4609375 C-13.39772819 1.02369269 -7.30458748 -0.05277881 0 0 Z " fill="#FDA2A2" transform="translate(53.0625,310.6875)"/>
<path d="M0 0 C4.38460559 2.83157395 8.03046561 6.84999373 10.37109375 11.53125 C11.27593354 18.87305136 10.93021573 24.60632154 6.328125 30.56640625 C-3.61947234 40.55371456 -18.0916855 43.7349693 -31.69140625 43.78125 C-45.61701501 43.76253099 -56.77124452 41.21862169 -67.56640625 32.03125 C-71.57929879 27.16713783 -73.2254676 23.09964609 -72.97265625 16.83203125 C-72.00386064 10.34770606 -68.62074134 5.8195379 -63.54296875 1.84375 C-58.22604361 -1.80214153 -53.08462574 -3.83096935 -46.76171875 -5.03125 C-44.41921324 -5.46118483 -44.41921324 -5.46118483 -41.44140625 -6.59375 C-27.17774201 -9.86737786 -12.78454593 -6.54185814 0 0 Z " fill="#FDA1A2" transform="translate(489.62890625,316.46875)"/>
<path d="M0 0 C3.1637504 0.30130956 3.64113269 0.86191308 5.625 3.25 C6.65234375 5.30078125 6.65234375 5.30078125 7.5625 7.5625 C10.42076755 14.19583791 12.71759547 18.43856517 19.625 21.25 C23.33907806 21.72142184 23.33907806 21.72142184 27.1875 21.625 C29.10755859 21.63660156 29.10755859 21.63660156 31.06640625 21.6484375 C34.85370167 21.22439345 36.6803161 20.63080826 39.625 18.25 C41.20399777 15.96915099 41.20399777 15.96915099 42.3125 13.375 C42.70824219 12.53195312 43.10398437 11.68890625 43.51171875 10.8203125 C44.2643808 9.08258748 44.97453957 7.32592988 45.64453125 5.5546875 C46.625 3.25 46.625 3.25 48.625 1.25 C52.67761287 0.90509678 54.17254176 0.94836118 57.625 3.25 C57.91027337 7.10119054 57.80582522 10.55992118 56.625 14.25 C55.965 14.25 55.305 14.25 54.625 14.25 C54.58375 15.075 54.5425 15.9 54.5 16.75 C52.98712581 22.80149675 49.34378737 27.50226716 44 30.75 C40.625 32.25 40.625 32.25 36.625 32.25 C36.625 32.91 36.625 33.57 36.625 34.25 C30.355 34.25 24.085 34.25 17.625 34.25 C17.625 33.59 17.625 32.93 17.625 32.25 C16.325625 32.12625 16.325625 32.12625 15 32 C8.78669241 30.61926498 4.3508872 26.30076046 -0.375 22.25 C-0.72691406 22.70890625 -1.07882813 23.1678125 -1.44140625 23.640625 C-6.44032829 29.8533845 -11.6029399 33.10535134 -19.375 35.25 C-22.21402176 35.54672402 -25.02236782 35.57503353 -27.875 35.5625 C-28.60847656 35.57861328 -29.34195313 35.59472656 -30.09765625 35.61132812 C-36.85241731 35.61736995 -41.51774869 33.52629713 -46.375 28.75 C-52.0489425 22.88002878 -57.12555407 14.98947265 -57.5625 6.6875 C-57.375 3.25 -57.375 3.25 -55.375 1.25 C-50.08154075 0.68686604 -50.08154075 0.68686604 -47.796875 2.5078125 C-46.23207259 4.42512534 -45.45525517 6.13427319 -44.5625 8.4375 C-42.53312835 13.20652337 -39.97338829 17.48848477 -36.375 21.25 C-32.94508462 22.39330513 -30.1763584 22.45381651 -26.5625 22.5 C-24.75845703 22.53867187 -24.75845703 22.53867187 -22.91796875 22.578125 C-18.15971118 22.13744844 -14.85466754 20.88749874 -11.6171875 17.3046875 C-8.71099316 12.67138339 -6.2199747 8.06310307 -4.13671875 3 C-3.01896558 0.43203374 -2.87773805 0.3029198 0 0 Z " fill="#050A10" transform="translate(255.375,312.75)"/>
<path d="M0 0 C3.0216321 0.73251687 4.80104733 2.27158096 6.93359375 4.46875 C8.69433093 7.99022436 8.5886698 11.63462843 7.93359375 15.46875 C6.43388373 18.29072344 4.74352403 19.95218885 1.93359375 21.46875 C-2.34796857 22.42267321 -5.723065 22.15680283 -9.62890625 20.15625 C-12.00257191 15.71852724 -11.86587682 11.37169784 -11.06640625 6.46875 C-8.93153147 1.30373038 -5.38227002 -0.40697694 0 0 Z " fill="#D7DEF4" transform="translate(395.06640625,192.53125)"/>
<path d="M0 0 C2.875 1.3125 2.875 1.3125 5 3 C6.3570795 7.07123851 6.64791492 10.7475929 6 15 C3.43952397 18.80191895 1.99524833 19.80450479 -2.5 20.6875 C-6.18514272 19.96363268 -7.90462317 19.06145122 -10.1171875 15.984375 C-11.86002544 12.06684546 -11.75558116 8.16282448 -11 4 C-8.2383145 -0.63963165 -5.12009698 -0.62878384 0 0 Z " fill="#DAE1F6" transform="translate(163,193)"/>
<path d="M0 0 C0 0.66 0 1.32 0 2 C2.31 2.33 4.62 2.66 7 3 C3.66148139 4.09980411 1.41852891 3.85651493 -1.98828125 3.1015625 C-8.06300899 1.8993463 -14.00857392 1.56524275 -20.1875 1.375 C-21.23486328 1.33632813 -22.28222656 1.29765625 -23.36132812 1.2578125 C-25.90739113 1.16480563 -28.45346963 1.07896716 -31 1 C-22.54000642 -4.63999572 -9.33076393 -2.22350119 0 0 Z " fill="#BABCEB" transform="translate(71,310)"/>
<path d="M0 0 C0.33 0 0.66 0 1 0 C1 3.3 1 6.6 1 10 C1.99 9.67 2.98 9.34 4 9 C4.33 10.65 4.66 12.3 5 14 C7.64 14 10.28 14 13 14 C13 14.33 13 14.66 13 15 C5.17515924 15.60191083 5.17515924 15.60191083 1.4375 13.6875 C-0.88830065 9.33926401 -0.29963895 4.82751646 0 0 Z " fill="#9A9FB0" transform="translate(384,199)"/>
<path d="M0 0 C0.66 0.33 1.32 0.66 2 1 C-2.29 5.29 -6.58 9.58 -11 14 C-11 10.30159372 -10.17133056 9.68584567 -7.75 7 C-7.14671875 6.319375 -6.5434375 5.63875 -5.921875 4.9375 C-4.06233388 3.06284066 -2.15205789 1.52358081 0 0 Z " fill="#1C1F28" transform="translate(114,184)"/>
<path d="M0 0 C-0.556875 0.268125 -1.11375 0.53625 -1.6875 0.8125 C-4.09305121 1.99530663 -4.09305121 1.99530663 -6.5625 3.6875 C-7.7690625 4.3371875 -7.7690625 4.3371875 -9 5 C-9.99 4.67 -10.98 4.34 -12 4 C-8.07829422 -0.09996514 -5.68430095 -0.10526483 0 0 Z " fill="#BABDEC" transform="translate(440,312)"/>
<path d="M0 0 C2.01822917 0.06510417 4.03645833 0.13020833 6.0546875 0.1953125 C6.0546875 0.5253125 6.0546875 0.8553125 6.0546875 1.1953125 C4.3840625 1.3190625 4.3840625 1.3190625 2.6796875 1.4453125 C-1.00285194 1.77405037 -1.00285194 1.77405037 -2.3828125 4.2578125 C-2.5684375 4.8971875 -2.7540625 5.5365625 -2.9453125 6.1953125 C-3.9353125 6.1953125 -4.9253125 6.1953125 -5.9453125 6.1953125 C-3.20430126 0.32171699 -3.20430126 0.32171699 0 0 Z " fill="#9FA3B5" transform="translate(390.9453125,192.8046875)"/>
<path d="M0 0 C0.33 0.99 0.66 1.98 1 3 C0.01 3.33 -0.98 3.66 -2 4 C-2 6.97 -2 9.94 -2 13 C-2.33 13 -2.66 13 -3 13 C-3.08121924 11.39667209 -3.13929134 9.79215974 -3.1875 8.1875 C-3.22230469 7.29417969 -3.25710937 6.40085938 -3.29296875 5.48046875 C-2.95081002 2.58352485 -2.24606427 1.77444972 0 0 Z " fill="#959AA9" transform="translate(155,194)"/>
</svg>
