<?xml version="1.0" encoding="UTF-8"?>
<svg version="1.1" xmlns="http://www.w3.org/2000/svg" width="512" height="512">
<path d="M0 0 C3.01892424 2.70407588 5.95896009 5.48284258 8.890625 8.28125 C9.74398438 9.08175781 10.59734375 9.88226563 11.4765625 10.70703125 C41.65707755 39.79266957 57.38815913 80.01650927 62.203125 121.00390625 C63.09760031 123.96685571 64.59097984 125.25618934 66.890625 127.28125 C71.70825763 131.97844182 75.45786625 136.45845507 78.7109375 142.359375 C80.01722 144.48749086 81.49980266 146.34653229 83.078125 148.28125 C96.58917849 165.308083 106.84099628 186.16973744 104.890625 208.28125 C103.03569523 215.12370879 100.44712278 220.73502455 94.890625 225.28125 C94.21902344 225.91675781 93.54742187 226.55226563 92.85546875 227.20703125 C84.21471418 235.31422293 75.95125183 239.17324253 63.94140625 239.31640625 C54.22806471 238.79582193 45.44669358 235.78444399 36.890625 231.28125 C36.230625 231.28125 35.570625 231.28125 34.890625 231.28125 C33.738863 232.92280769 32.66928039 234.62237397 31.640625 236.34375 C28.70159562 241.07751454 25.6658347 245.20304082 21.890625 249.28125 C20.52485976 250.77007533 19.15913135 252.25893456 17.79394531 253.74829102 C16.84394646 254.78230876 15.89161251 255.81418794 14.93652344 256.84350586 C12.63810729 259.32851386 10.41276852 261.84476779 8.28125 264.47265625 C6.3126831 266.7854007 4.66225077 268.43859599 2.203125 270.15625 C-0.99543905 272.45126488 -4.06303102 274.84958511 -7.109375 277.34375 C-10.7325137 280.26905767 -14.38823901 282.84543649 -18.41796875 285.17578125 C-20.19322937 286.24881218 -20.19322937 286.24881218 -21.70703125 287.91796875 C-23.109375 289.28125 -23.109375 289.28125 -25.109375 289.28125 C-25.521875 289.735 -25.934375 290.18875 -26.359375 290.65625 C-28.109375 292.28125 -28.109375 292.28125 -30.734375 293.1484375 C-33.92012978 294.21773019 -36.76340963 295.5120289 -39.76489258 296.99707031 C-80.59018431 317.1551232 -129.46326571 319.72731141 -172.62304688 305.44970703 C-211.07630799 291.87399482 -243.29806439 267.09480045 -266.109375 233.28125 C-266.95757812 233.4978125 -267.80578125 233.714375 -268.6796875 233.9375 C-283.49790312 237.45479074 -296.71732198 237.60812363 -310.43359375 230.37890625 C-312.9164979 228.75257509 -314.40717765 226.68780487 -316.109375 224.28125 C-316.934375 223.518125 -317.759375 222.755 -318.609375 221.96875 C-325.34986783 214.72272021 -326.49365827 206.83971289 -326.375 197.23828125 C-324.79586289 173.71378279 -311.06952365 147.20224569 -296.4519043 129.24511719 C-294.88651083 126.95524175 -294.62267242 125.48418763 -294.37109375 122.73828125 C-294.27675049 121.84206055 -294.18240723 120.94583984 -294.08520508 120.02246094 C-293.99005615 119.05598633 -293.89490723 118.08951172 -293.796875 117.09375 C-291.48252263 97.20394274 -286.89489296 78.31850305 -278.109375 60.28125 C-277.7170166 59.47429687 -277.3246582 58.66734375 -276.92041016 57.8359375 C-255.68497471 14.77449033 -218.81179944 -18.3724392 -173.234375 -33.96875 C-164.02154758 -36.97477824 -154.65338241 -39.07641704 -145.109375 -40.71875 C-144.42085449 -40.83734375 -143.73233398 -40.9559375 -143.02294922 -41.078125 C-92.39907274 -49.33722794 -38.4417205 -33.87105286 0 0 Z " fill="#979797" transform="translate(368.109375,127.71875)"/>
<path d="M0 0 C3.01892424 2.70407588 5.95896009 5.48284258 8.890625 8.28125 C9.74398438 9.08175781 10.59734375 9.88226563 11.4765625 10.70703125 C41.65707755 39.79266957 57.38815913 80.01650927 62.203125 121.00390625 C63.09760031 123.96685571 64.59097984 125.25618934 66.890625 127.28125 C71.70825763 131.97844182 75.45786625 136.45845507 78.7109375 142.359375 C80.01722 144.48749086 81.49980266 146.34653229 83.078125 148.28125 C96.58917849 165.308083 106.84099628 186.16973744 104.890625 208.28125 C103.03569523 215.12370879 100.44712278 220.73502455 94.890625 225.28125 C94.21902344 225.91675781 93.54742187 226.55226563 92.85546875 227.20703125 C84.21471418 235.31422293 75.95125183 239.17324253 63.94140625 239.31640625 C54.22806471 238.79582193 45.44669358 235.78444399 36.890625 231.28125 C36.230625 231.28125 35.570625 231.28125 34.890625 231.28125 C33.738863 232.92280769 32.66928039 234.62237397 31.640625 236.34375 C28.70159562 241.07751454 25.6658347 245.20304082 21.890625 249.28125 C20.52485976 250.77007533 19.15913135 252.25893456 17.79394531 253.74829102 C16.84394646 254.78230876 15.89161251 255.81418794 14.93652344 256.84350586 C12.63810729 259.32851386 10.41276852 261.84476779 8.28125 264.47265625 C6.3126831 266.7854007 4.66225077 268.43859599 2.203125 270.15625 C-0.99543905 272.45126488 -4.06303102 274.84958511 -7.109375 277.34375 C-10.7325137 280.26905767 -14.38823901 282.84543649 -18.41796875 285.17578125 C-20.19322937 286.24881218 -20.19322937 286.24881218 -21.70703125 287.91796875 C-23.109375 289.28125 -23.109375 289.28125 -25.109375 289.28125 C-25.521875 289.735 -25.934375 290.18875 -26.359375 290.65625 C-28.109375 292.28125 -28.109375 292.28125 -30.734375 293.1484375 C-33.92012978 294.21773019 -36.76340963 295.5120289 -39.76489258 296.99707031 C-80.59018431 317.1551232 -129.46326571 319.72731141 -172.62304688 305.44970703 C-211.07630799 291.87399482 -243.29806439 267.09480045 -266.109375 233.28125 C-266.95757812 233.4978125 -267.80578125 233.714375 -268.6796875 233.9375 C-283.49790312 237.45479074 -296.71732198 237.60812363 -310.43359375 230.37890625 C-312.9164979 228.75257509 -314.40717765 226.68780487 -316.109375 224.28125 C-316.934375 223.518125 -317.759375 222.755 -318.609375 221.96875 C-325.34986783 214.72272021 -326.49365827 206.83971289 -326.375 197.23828125 C-324.79586289 173.71378279 -311.06952365 147.20224569 -296.4519043 129.24511719 C-294.88651083 126.95524175 -294.62267242 125.48418763 -294.37109375 122.73828125 C-294.27675049 121.84206055 -294.18240723 120.94583984 -294.08520508 120.02246094 C-293.99005615 119.05598633 -293.89490723 118.08951172 -293.796875 117.09375 C-291.48252263 97.20394274 -286.89489296 78.31850305 -278.109375 60.28125 C-277.7170166 59.47429687 -277.3246582 58.66734375 -276.92041016 57.8359375 C-255.68497471 14.77449033 -218.81179944 -18.3724392 -173.234375 -33.96875 C-164.02154758 -36.97477824 -154.65338241 -39.07641704 -145.109375 -40.71875 C-144.42085449 -40.83734375 -143.73233398 -40.9559375 -143.02294922 -41.078125 C-92.39907274 -49.33722794 -38.4417205 -33.87105286 0 0 Z M-153.07910156 -24.265625 C-155.04143628 -23.73704999 -157.02486964 -23.28881934 -159.0078125 -22.84375 C-169.29788935 -20.42763133 -178.64076457 -16.31693862 -188.109375 -11.71875 C-188.78033203 -11.39358398 -189.45128906 -11.06841797 -190.14257812 -10.73339844 C-204.15820489 -3.83782231 -216.38041043 4.95477402 -227.58984375 15.81298828 C-229.16645623 17.33640529 -230.76269146 18.83750107 -232.359375 20.33984375 C-244.88735586 32.300471 -254.18843518 45.92893111 -262.109375 61.28125 C-262.42890137 61.89967773 -262.74842773 62.51810547 -263.07763672 63.15527344 C-272.04631472 80.79257958 -278.55369366 100.63450589 -279.33984375 120.53125 C-279.93524097 131.67528855 -284.3760199 138.18889697 -290.640625 147.17578125 C-301.16205717 162.32351496 -311.05147177 180.7301711 -311.484375 199.40625 C-311.51055908 200.0878418 -311.53674316 200.76943359 -311.5637207 201.47167969 C-311.58351366 207.49167043 -309.43664694 210.89273407 -305.328125 215.109375 C-304.7609375 215.57859375 -304.19375 216.0478125 -303.609375 216.53125 C-303.0421875 217.01078125 -302.475 217.4903125 -301.890625 217.984375 C-295.4446046 222.67753021 -287.7726866 222.04160087 -280.109375 221.28125 C-276.12012333 220.55484345 -272.28988499 219.43700743 -268.4140625 218.25390625 C-265.31260527 217.341066 -262.30553439 216.74270158 -259.109375 216.28125 C-258.59890625 217.20164062 -258.0884375 218.12203125 -257.5625 219.0703125 C-252.03850364 228.78912598 -245.74928968 237.13607781 -238.109375 245.28125 C-237.46403809 245.97041504 -236.81870117 246.65958008 -236.15380859 247.36962891 C-208.12700093 276.98773863 -169.42509835 298.22008259 -127.90063477 299.37011719 C-124.34451183 299.4151409 -120.79074557 299.41773451 -117.234375 299.40625 C-116.04457031 299.41011719 -114.85476562 299.41398437 -113.62890625 299.41796875 C-70.35005257 299.37066946 -30.42726378 281.61592133 0.140625 251.40625 C18.46162344 233.2120141 18.46162344 233.2120141 28.890625 210.28125 C29.68984375 210.80074219 30.4890625 211.32023438 31.3125 211.85546875 C43.71278029 219.72935565 55.78312754 225.92009324 70.890625 224.28125 C79.21078219 221.65321168 85.45527793 216.4449079 89.828125 208.96875 C93.35968507 196.71215919 88.62550827 185.02337186 82.77685547 174.2355957 C80.88340954 170.87466815 78.90974025 167.56798975 76.890625 164.28125 C76.50825684 163.65798828 76.12588867 163.03472656 75.73193359 162.39257812 C65.1977656 144.52957524 65.1977656 144.52957524 50.78515625 130.0390625 C47.18703457 126.61089259 47.04446882 124.91889774 46.703125 120.03125 C46.57407515 118.59861442 46.44113226 117.16632521 46.3046875 115.734375 C46.24055664 114.99896484 46.17642578 114.26355469 46.11035156 113.50585938 C42.27061852 74.63069553 21.3581133 36.19467259 -8.796875 11.40625 C-10.56645061 10.02963173 -12.33721521 8.65453999 -14.109375 7.28125 C-15.23472656 6.30478516 -15.23472656 6.30478516 -16.3828125 5.30859375 C-24.16426404 -1.3707068 -33.05451304 -6.01371434 -42.109375 -10.71875 C-42.75567871 -11.05825684 -43.40198242 -11.39776367 -44.06787109 -11.74755859 C-59.42292667 -19.71322357 -76.08304649 -24.06256632 -93.109375 -26.71875 C-94.17865234 -26.89003418 -95.24792969 -27.06131836 -96.34960938 -27.23779297 C-103.13289218 -28.1055246 -109.96722162 -28.00954371 -116.796875 -28.03125 C-117.97280212 -28.03517761 -117.97280212 -28.03517761 -119.17248535 -28.03918457 C-130.82077353 -28.04335425 -141.78464274 -27.34829887 -153.07910156 -24.265625 Z " fill="#010101" transform="translate(368.109375,127.71875)"/>
<path d="M0 0 C1.875 1.1875 1.875 1.1875 3 3 C3.5 5.4375 3.5 5.4375 3 8 C-0.87558629 11.72681138 -5.01117534 13.39116684 -9.9375 15.25 C-22.23054324 20.11922763 -32.92928479 26.34024314 -43 35 C-43.68449219 35.54011719 -44.36898437 36.08023438 -45.07421875 36.63671875 C-67.22940779 54.61332597 -76.14454783 84.53954647 -79.31518555 111.69995117 C-79.39679932 112.50150635 -79.47841309 113.30306152 -79.5625 114.12890625 C-80 118 -80 118 -81.1875 120.5625 C-83 122 -83 122 -86 122.4375 C-89 122 -89 122 -90.66918945 120.78637695 C-93.73238471 116.67458101 -92.24246809 110.13890114 -91.69384766 105.29931641 C-91.2928045 102.62254013 -90.82257926 99.97060896 -90.3125 97.3125 C-90.13243408 96.35915771 -89.95236816 95.40581543 -89.7668457 94.42358398 C-87.00848059 80.38903174 -82.36887477 67.77445776 -76 55 C-75.34 55 -74.68 55 -74 55 C-73.95875 54.33484375 -73.9175 53.6696875 -73.875 52.984375 C-72.59098548 48.60496833 -69.90746233 45.70672183 -67 42.25 C-66.40622559 41.53626221 -65.81245117 40.82252441 -65.20068359 40.0871582 C-51.24704654 23.47397532 -23.67298487 -1.6789351 0 0 Z " fill="#B1B1B1" transform="translate(206,126)"/>
<path d="M0 0 C4.65687629 2.94802255 7.7643745 6.84565564 9.9453125 11.90234375 C10.63295014 16.33378632 10.29145892 18.24713804 8.1953125 22.21484375 C6.01935301 24.81390647 5.0062262 25.7116764 1.9453125 26.90234375 C-2.91868029 27.25298279 -6.77199357 26.44359261 -10.5546875 23.33984375 C-13.92815228 20.66756103 -16.50551371 20.17206702 -20.77734375 20.3984375 C-24.1210467 21.1382963 -26.5745807 22.72226661 -29.328125 24.7109375 C-33.45287299 27.55720026 -38.24269391 27.60181042 -43.0546875 26.90234375 C-46.1171875 25.08984375 -46.1171875 25.08984375 -48.0546875 21.90234375 C-49.00232315 17.23706057 -49.03366794 12.98134221 -46.98046875 8.62109375 C-35.68731375 -7.4677846 -16.60353366 -8.86994859 0 0 Z " fill="#070707" transform="translate(275.0546875,299.09765625)"/>
<path d="M0 0 C2.475 0.495 2.475 0.495 5 1 C7.4139025 8.94821556 7.24006518 18.58565163 3.328125 25.96875 C-0.72587971 32.1689925 -4.61310896 36.96223696 -12 39 C-17.70677502 39.69960464 -22.16893148 39.36074332 -27 36 C-32.45940581 30.89281392 -36.76632034 25.32734649 -37.10375977 17.63452148 C-37.09143311 16.84634033 -37.07910645 16.05815918 -37.06640625 15.24609375 C-37.05681885 14.44743896 -37.04723145 13.64878418 -37.03735352 12.82592773 C-37.02502686 12.22337158 -37.0127002 11.62081543 -37 11 C-33.14819582 9.84612191 -29.29318031 8.70335272 -25.4375 7.5625 C-24.35146484 7.23701172 -23.26542969 6.91152344 -22.14648438 6.57617188 C-16.76475244 4.98946064 -11.58764029 3.56918574 -6 3 C-5.67 3.99 -5.34 4.98 -5 6 C-3.68 5.67 -2.36 5.34 -1 5 C-0.67 3.35 -0.34 1.7 0 0 Z " fill="#020202" transform="translate(217,249)"/>
<path d="M0 0 C11.45955326 0.87055885 23.40309618 2.36385458 34 7 C34 7.99 34 8.98 34 10 C35.98 10 37.96 10 40 10 C40 9.34 40 8.68 40 8 C40.99 8 41.98 8 43 8 C43.54406552 16.43301559 41.86324194 23.49378966 36.75 30.375 C32.30346574 34.61941907 27.83276921 37.14241723 21.625 37.625 C15.83885997 37.30521333 11.33005781 34.73559225 7 31 C3.0030055 25.78125213 -0.14509282 20.4580878 -0.09765625 13.76953125 C-0.09282227 12.56586914 -0.09282227 12.56586914 -0.08789062 11.33789062 C-0.07951172 10.50451172 -0.07113281 9.67113281 -0.0625 8.8125 C-0.05798828 7.96751953 -0.05347656 7.12253906 -0.04882812 6.25195312 C-0.03705403 4.16793845 -0.0191189 2.08396023 0 0 Z " fill="#020202" transform="translate(286,251)"/>
<path d="M0 0 C2.73713812 2.98596886 3.50138483 5.25205442 4.0625 9.25 C2.05999366 14.31516309 -1.7314958 17.19952181 -6.5625 19.5 C-15.2820382 21.43767516 -23.11026339 20.69366309 -30.9375 16.25 C-34.13550031 13.43271402 -34.80215352 11.99440565 -35.5625 7.8125 C-34.84514452 3.72357376 -33.88983687 2.22305645 -30.83984375 -0.4609375 C-21.05563758 -7.0908924 -9.77596733 -5.82398054 0 0 Z " fill="#919191" transform="translate(179.9375,297.75)"/>
<path d="M0 0 C3.13467632 1.72822387 4.21001622 2.62752432 6.25 5.6875 C6.68505249 9.60297245 6.6857525 11.90677677 4.75 15.375 C-1.58801384 21.2376628 -7.40005012 22.32846905 -15.80224609 22.30712891 C-22.06032198 22.0290249 -26.35562419 20.0925938 -30.75 15.6875 C-32.75 12.6875 -32.75 12.6875 -32.8125 9.375 C-31.41249606 4.51616279 -28.95030887 2.35816883 -24.75 -0.3125 C-17.09956978 -4.07965957 -7.59292468 -3.66936098 0 0 Z " fill="#919191" transform="translate(359.75,295.3125)"/>
<path d="M0 0 C4.98755787 2.78356339 7.74551818 6.20805436 9.38671875 11.64453125 C9.38671875 12.53140625 9.38671875 13.41828125 9.38671875 14.33203125 C7.38671875 16.33203125 7.38671875 16.33203125 4.26171875 16.76953125 C0.39678342 16.33316758 -0.36909273 15.99254492 -3.30078125 13.83203125 C-7.67523758 10.87333889 -11.43879283 10.56739313 -16.65234375 10.7578125 C-20.75416413 11.55328426 -23.31152773 13.47304309 -26.57421875 15.98828125 C-29.63032778 18.00226881 -32.08013131 17.90887206 -35.61328125 17.33203125 C-36.27328125 16.67203125 -36.93328125 16.01203125 -37.61328125 15.33203125 C-37.53493172 11.17950616 -37.12418157 8.96314341 -34.48828125 5.70703125 C-23.76222014 -3.15362793 -13.48043071 -5.56928743 0 0 Z " fill="#929292" transform="translate(269.61328125,302.66796875)"/>
<path d="M0 0 C2.97717008 1.98478006 4.62826444 3.36831119 5.44140625 6.9375 C5.66684799 10.77728188 5.23190202 12.63668683 3.125 15.9375 C0.39102013 18.5910687 -0.47384331 18.95036258 -4.3125 19.3125 C-8.57536111 18.95124058 -10.01992054 17.98007946 -13 15 C-14.55024464 11.89951072 -14.28992015 9.42105782 -14 6 C-10.30602342 0.33590258 -6.71359804 -1.10395685 0 0 Z " fill="#B1B1B1" transform="translate(238,118)"/>
<path d="M0 0 C-0.33 1.65 -0.66 3.3 -1 5 C-2.32 5.33 -3.64 5.66 -5 6 C-5 4.35 -5 2.7 -5 1 C-3 0 -3 0 0 0 Z " fill="#E9E9E9" transform="translate(217,250)"/>
<path d="" fill="#000000" transform="translate(0,0)"/>
<path d="" fill="#000000" transform="translate(0,0)"/>
<path d="" fill="#000000" transform="translate(0,0)"/>
</svg>
