<?xml version="1.0" encoding="UTF-8"?>
<svg version="1.1" xmlns="http://www.w3.org/2000/svg" width="160" height="158">
<path d="M0 0 C52.8 0 105.6 0 160 0 C160 52.14 160 104.28 160 158 C107.2 158 54.4 158 0 158 C0 105.86 0 53.72 0 0 Z " fill="#E27F38" transform="translate(0,0)"/>
<path d="M0 0 C52.8 0 105.6 0 160 0 C160 52.14 160 104.28 160 158 C107.2 158 54.4 158 0 158 C0 105.86 0 53.72 0 0 Z M50 5 C48.99637705 12.76830235 50.45847223 20.16085457 52.34375 27.67578125 C53.03856142 31.19533198 53.10884463 34.42173294 53 38 C51.77023438 37.95359375 50.54046875 37.9071875 49.2734375 37.859375 C47.6406494 37.82183964 46.00783489 37.78544138 44.375 37.75 C43.56675781 37.71648438 42.75851563 37.68296875 41.92578125 37.6484375 C36.39178464 37.55845382 33.41957148 38.37385307 29 42 C28.3915625 42.48082031 27.783125 42.96164063 27.15625 43.45703125 C26.6096875 43.90433594 26.063125 44.35164063 25.5 44.8125 C20.76788322 48.44198762 15.46181837 50.80785446 10.07421875 53.2890625 C7.0431659 54.97597629 5.62473207 55.97856842 4 59 C2.28499525 66.88902184 5.34502548 74.12540804 9 81 C11.00342211 84.34297199 11.00342211 84.34297199 14 86 C17.04976719 86.37543508 19.94673163 86.29934004 23 86 C22.6803125 86.98484375 22.360625 87.9696875 22.03125 88.984375 C19.49710252 97.92578188 19.40853115 108.19087337 23.875 116.4375 C25.45115493 118.93117507 26.9148795 120.9148795 29 123 C29.95591655 130.40835324 27.95330315 134.91523253 24.41015625 141.3984375 C22.03956252 145.77188743 21.90717752 149.08040839 22 154 C22.66 154 23.32 154 24 154 C25.88431823 151.17352265 26.32145442 150.0038597 26.875 146.8125 C27.71481633 142.66760004 29.153727 139.31717203 31.1953125 135.62890625 C32.14763612 134.00394874 32.14763612 134.00394874 32 132 C33.175625 132.7425 33.175625 132.7425 34.375 133.5 C36.78552327 135.16537965 36.78552327 135.16537965 39 135 C39 135.66 39 136.32 39 137 C38.38125 137.2475 37.7625 137.495 37.125 137.75 C34.64931313 139.20628639 34.04874998 140.37812506 33 143 C35.9354495 142.54839238 37.1921173 141.845369 39.5625 139.9375 C44.40035293 137.21071017 48.56176509 137.32831325 54 138 C58.15892458 139.48533021 60.90475898 141.04232252 63 145 C63.1875 147.75 63.1875 147.75 63 150 C59.12955728 152.57687301 55.03944492 152.3316159 50.5625 152.3125 C49.43618164 152.33666992 49.43618164 152.33666992 48.28710938 152.36132812 C43.61394189 152.36543821 40.91696847 151.77482439 37 149 C36.34 149 35.68 149 35 149 C35.03955898 150.92309422 35.03955898 150.92309422 36 153 C40.99910543 156.22826244 45.24670284 156.48971639 51 156.4375 C51.78117187 156.45748047 52.56234375 156.47746094 53.3671875 156.49804688 C58.64486588 156.49360438 61.943671 155.68932781 66 152 C66.71602266 149.88665391 66.71602266 149.88665391 66.375 147.75 C66.189375 145.89375 66.189375 145.89375 66 144 C68.97 144 71.94 144 75 144 C75.103125 145.11375 75.20625 146.2275 75.3125 147.375 C75.539375 148.57125 75.76625 149.7675 76 151 C79.23253796 153.15502531 80.25150923 153.46856135 84 153 C85.93654948 151.98029682 85.93654948 151.98029682 87 150 C87.25048636 146.87450983 87.25048636 146.87450983 87 144 C89.97 144 92.94 144 96 144 C95.9175 145.0725 95.835 146.145 95.75 147.25 C95.64540963 151.01156397 95.64540963 151.01156397 97.875 153.375 C103.49659401 157.67386601 112.16539493 156.6972059 119 156 C122.21630119 155.00870394 124.20092301 153.90575455 127 152 C127 151.01 127 150.02 127 149 C124.89804353 149.45041924 123.22086116 149.8597451 121.39453125 151.01953125 C117.78181428 152.49880035 114.30302625 152.32881024 110.4375 152.3125 C109.66986328 152.32861328 108.90222656 152.34472656 108.11132812 152.36132812 C102.5556817 152.36617176 102.5556817 152.36617176 99.97265625 150.6640625 C99 149 99 149 99 146.0625 C100.22862415 142.29983853 101.73891035 141.14754684 105 139 C108.68235243 137.15882379 112.9721632 137.62934017 117 138 C120.5 139.5 120.5 139.5 123 141 C123.66 141 124.32 141 125 141 C125 141.66 125 142.32 125 143 C125.99 143 126.98 143 128 143 C127.42655063 140.13275314 127.1385485 139.1385485 125 137 C124.01 137 123.02 137 122 137 C122 136.34 122 135.68 122 135 C125.465 134.01 125.465 134.01 129 133 C132.25867807 139.91809972 135.45359766 146.78519336 138 154 C138.66 154 139.32 154 140 154 C139.51986454 145.67765207 136.6256993 137.93854894 132 131 C131.1034117 124.27558777 131.1034117 124.27558777 133.23828125 121.23828125 C134.31101755 120.09633616 135.38666258 118.95711817 136.46484375 117.8203125 C142.23568274 110.9775365 141.6149858 101.42833002 141 93 C140.53205675 90.48830461 139.91154663 88.39280992 139 86 C140.92057292 86.13020833 142.84114583 86.26041667 144.76171875 86.390625 C148.0921041 85.80940592 149.60701446 84.35847133 152 82 C156.11992501 74.82364472 159.32321098 67.33622917 158 59 C155.28413053 54.80619225 152.91438686 53.21195286 148.25 51.5625 C141.94912869 49.12320637 137.35589114 45.7687914 132.19140625 41.5078125 C126.19116644 37.09183559 120.23895091 37.32972677 113 38 C111.65743662 38.29395996 110.31780648 38.60977575 109 39 C109.2844814 36.79072956 109.5779096 34.58261021 109.875 32.375 C110.03742188 31.14523438 110.19984375 29.91546875 110.3671875 28.6484375 C111 25 111 25 112.0546875 21.9921875 C113.17067397 18.45976753 113.26573688 15.4481676 113.25 11.75 C113.25515625 10.52796875 113.2603125 9.3059375 113.265625 8.046875 C113.31949811 4.89081635 113.31949811 4.89081635 111 3 C106.20291175 2.46623948 103.46371075 3.4900323 99.375 5.9375 C91.28541006 10.73007219 82.27477552 11.47600361 73 10 C69.3235109 8.68604024 66.13028144 6.61958247 62.8203125 4.56640625 C58.41084488 2.1173806 53.85990773 1.14009227 50 5 Z " fill="#FCFBFB" transform="translate(0,0)"/>
<path d="M0 0 C5.94 0 11.88 0 18 0 C17.505 1.711875 17.01 3.42375 16.5 5.1875 C13.42157549 17.76632549 14.12310474 31.32057502 20.578125 42.80859375 C24.83500513 48.64742257 29.76895556 52.60498435 37 54 C45.98651778 54.69039998 52.92116543 53.95992965 61 50 C62.66211425 49.3220631 64.32771845 48.65245431 66 48 C66.55427946 56.96085124 66.23601908 64.78643806 60.375 72 C46.42622945 85.48381153 21.49932649 87.61712646 3.09375 87.33984375 C-12.57915626 86.73530303 -32.09035251 82.8471849 -43.25 70.9375 C-47.43431765 65.83651482 -48.25697504 60.59177675 -48.125 54.125 C-48.10695313 52.97257812 -48.08890625 51.82015625 -48.0703125 50.6328125 C-48.04710938 49.76398438 -48.02390625 48.89515625 -48 48 C-47.14728516 48.42925781 -47.14728516 48.42925781 -46.27734375 48.8671875 C-45.52582031 49.24101563 -44.77429688 49.61484375 -44 50 C-42.95005859 50.52980469 -42.95005859 50.52980469 -41.87890625 51.0703125 C-33.07719408 55.07783743 -24.36834322 55.34020423 -15.125 52.5 C-8.53065803 49.74515845 -4.62617918 45.64025431 -1.72265625 39.140625 C-0.72120629 36.44633257 0.17302803 33.75212716 1 31 C1.495 29.515 1.495 29.515 2 28 C2.22722098 24.96249464 2.18516477 21.9201457 2.1875 18.875 C2.20586914 17.64910156 2.20586914 17.64910156 2.22460938 16.3984375 C2.23826259 10.64588202 1.41920749 5.57585868 0 0 Z " fill="#FCFAF8" transform="translate(72,47)"/>
<path d="M0 0 C1.72037692 1.17018478 3.32783734 2.43680677 4.95703125 3.73046875 C9.88417034 7.59956955 14.93418247 10.36947037 20.59008789 13.01489258 C25.15132534 15.17765068 25.15132534 15.17765068 26.25 17.375 C27.07587539 24.80787849 24.79031139 30.85337376 21.25 37.375 C19.32421875 39.73828125 19.32421875 39.73828125 17.25 41.375 C12.10409422 41.29331896 8.3163767 40.69230731 4.25 37.375 C-0.87545873 32.02797965 -3.88188038 25.39938329 -6.9465332 18.74731445 C-7.80948615 16.92099458 -8.77328002 15.14309224 -9.75 13.375 C-10.74 13.045 -11.73 12.715 -12.75 12.375 C-5.99863807 28.00565641 -5.99863807 28.00565641 5.0625 40.375 C8.56873034 43.58069631 8.66590068 47.80682023 9.25 52.375 C7.68880578 53.16923861 6.12598036 53.96027123 4.5625 54.75 C3.69238281 55.19085938 2.82226562 55.63171875 1.92578125 56.0859375 C-5.76659657 59.79175455 -13.53051017 60.84916974 -22.0078125 58.83984375 C-23.75 58.125 -23.75 58.125 -26.75 56.375 C-27.760625 55.818125 -28.77125 55.26125 -29.8125 54.6875 C-38.25434027 48.04179596 -40.91041096 39.69540632 -42.75 29.375 C-43.5304046 21.57972256 -43.52998742 12.45763854 -39.75 5.375 C-37.703125 4.23828125 -37.703125 4.23828125 -34.75 3.375 C-34.09217529 3.17205322 -33.43435059 2.96910645 -32.7565918 2.76000977 C-8.59377289 -4.54625932 -8.59377289 -4.54625932 0 0 Z " fill="#E38039" transform="translate(128.75,42.625)"/>
<path d="M0 0 C1.5 1.125 1.5 1.125 3 3 C3.06012319 4.9990961 3.06500629 7.00105673 3 9 C15.30313017 10.97386668 27.55800242 11.58054935 40 12 C36.67620169 15.32379831 32.42662915 14.29694782 27.90625 14.32226562 C27.24367188 14.32009033 26.58109375 14.31791504 25.8984375 14.31567383 C23.90359024 14.31254484 21.90876066 14.33673865 19.9140625 14.36132812 C12.8334007 14.36491146 7.43832285 13.96102112 1 11 C-1.7480594 10.51244107 -4.23958011 10.16622967 -7 10 C-8.24523438 9.92072266 -8.24523438 9.92072266 -9.515625 9.83984375 C-17.15565177 9.57678894 -21.25298132 11.55343189 -27.125 16.375 C-31.5733351 19.95943356 -36.17029731 21.9641087 -41.49609375 23.95703125 C-44.11549861 24.86159712 -44.11549861 24.86159712 -46 27 C-47.48858672 34.86600563 -44.82719627 42.18651256 -41 49 C-38.14080976 51.32911899 -38.14080976 51.32911899 -34.6875 50.875 C-27.29106378 49.11991344 -23.88970576 45.03772467 -19.8125 38.94921875 C-16.62577262 33.76391881 -13.78906017 28.4085726 -11 23 C-10.34 23 -9.68 23 -9 23 C-9.61515379 27.54000825 -11.42279234 31.25860285 -13.5625 35.25 C-14.09061279 36.23818726 -14.09061279 36.23818726 -14.62939453 37.24633789 C-17.67955228 42.76435054 -21.19924577 47.84160021 -26 52 C-26.66 52 -27.32 52 -28 52 C-30.56578399 68.55089143 -30.56578399 68.55089143 -26 84 C-15.60090733 96.13227478 2.60412758 99.77687786 17.83056641 101.27929688 C36.35861662 102.43669043 61.04599615 100.26995188 76 88 C81.55051934 82.29089439 83.17694185 76.30738898 83.3125 68.5625 C83.4721136 59.41848731 83.4721136 59.41848731 79.58984375 51.609375 C78.39843559 50.70835562 77.20279952 49.8129105 76.00390625 48.921875 C71.96381508 45.04716768 69.56625419 39.6963764 66.96728516 34.78173828 C65.94810635 32.90441195 64.85740532 31.07962287 63.76171875 29.24609375 C62 26 62 26 62 23 C63.87719727 23.28833008 63.87719727 23.28833008 66 24 C67.48501029 26.55964995 68.73543437 29.00010971 69.9375 31.6875 C71.87102716 35.94590952 73.68057844 39.83189587 76.75390625 43.39453125 C79 46 79 46 79 48 C83.39322929 50.05932623 87.16940788 50.92332393 92 51 C96.7877673 47.14318745 99.43600101 39.68148788 100.35546875 33.6796875 C100.46626779 30.82001709 100.5488592 28.67601637 98.69433594 26.3918457 C95.8776566 24.07802886 92.53052751 22.72481678 89.25 21.1875 C83.39755109 18.37129871 78.73062389 15.51059488 74 11 C70.28720531 9.76240177 66.68693654 9.64391103 62.8125 9.4375 C62.06291016 9.39431641 61.31332031 9.35113281 60.54101562 9.30664062 C58.69421625 9.20077315 56.84713166 9.0999024 55 9 C59.26971547 5.10336646 63.18162196 5.45362381 68.734375 5.578125 C73.45976464 6.18858203 76.40044528 7.98742303 80 11 C85.11021851 15.1131027 89.95449518 18.37527908 96.1875 20.4375 C100.04617514 21.85359631 102.03865125 23.24074824 104 27 C105.32321098 35.33622917 102.11992501 42.82364472 98 50 C95.60701446 52.35847133 94.0921041 53.80940592 90.76171875 54.390625 C87.88085938 54.1953125 87.88085938 54.1953125 85 54 C85.33 54.86625 85.66 55.7325 86 56.625 C88.7232171 66.37332787 87.82192359 77.09561714 83 86 C82.0925 86.886875 81.185 87.77375 80.25 88.6875 C77.68020134 90.90540383 77.68020134 90.90540383 77.3125 94.5625 C77.61031822 99.63501681 80.17830895 103.75949057 82.53125 108.16015625 C84.94892525 112.83475707 86 116.68738297 86 122 C85.01 121.67 84.02 121.34 83 121 C81.97265625 118.55859375 81.97265625 118.55859375 81.0625 115.4375 C79.46792701 110.28438187 77.55387762 105.74291558 75 101 C71.535 101.99 71.535 101.99 68 103 C68 103.66 68 104.32 68 105 C68.61875 105.12375 69.2375 105.2475 69.875 105.375 C72 106 72 106 74 108 C74 108.99 74 109.98 74 111 C73.01 111 72.02 111 71 111 C71 110.34 71 109.68 71 109 C64.7657765 106.47261209 59.75292936 105.2228355 53 106 C49.14455202 107.99657127 47.40194908 109.39707638 45 113 C45.15760028 116.11304814 45.15760028 116.11304814 46 119 C49.2392114 120.6196057 52.75704381 120.22623755 56.3125 120.25 C57.07240234 120.270625 57.83230469 120.29125 58.61523438 120.3125 C63.3638042 120.34550483 65.99751177 119.77039258 70 117 C70.99 117 71.98 117 73 117 C73 117.99 73 118.98 73 120 C67.42624738 123.7948954 62.83544407 124.38617242 56.25 124.375 C55.13250366 124.37693359 55.13250366 124.37693359 53.99243164 124.37890625 C47.09976593 124.2420637 47.09976593 124.2420637 44 122 C41.5705484 118.3558226 41.83820425 116.28758728 42 112 C39.03 112 36.06 112 33 112 C33.061875 112.928125 33.12375 113.85625 33.1875 114.8125 C33 118 33 118 31.9375 119.9375 C28.78433176 121.66665678 26.37491745 120.8590699 23 120 C20.8480563 116.77208445 20.79913557 115.71599191 21 112 C18.03 112 15.06 112 12 112 C12.12375 113.2375 12.2475 114.475 12.375 115.75 C12.5859375 117.859375 12.5859375 117.859375 12 120 C7.23916525 124.31568538 3.16537764 124.62155109 -2.9375 124.5 C-4.09668945 124.52320313 -4.09668945 124.52320313 -5.27929688 124.546875 C-10.95767557 124.50847514 -14.29252557 123.15921054 -19 120 C-19 119.01 -19 118.02 -19 117 C-14.25 118.875 -14.25 118.875 -12 120 C-9.19648462 120.12479416 -6.4286626 120.18517138 -3.625 120.1875 C-2.85671875 120.19974609 -2.0884375 120.21199219 -1.296875 120.22460938 C4.12803523 120.25317313 4.12803523 120.25317313 9 118 C8.70853762 112.73004599 8.70853762 112.73004599 5.625 108.625 C0.36153712 105.36666583 -4.96420057 105.34280694 -11 106 C-14.40277812 107.79433653 -14.40277812 107.79433653 -17 110 C-19.375 110.75 -19.375 110.75 -21 111 C-19.95125002 108.37812506 -19.35068687 107.20628639 -16.875 105.75 C-16.25625 105.5025 -15.6375 105.255 -15 105 C-15 104.34 -15 103.68 -15 103 C-15.78375 102.690625 -16.5675 102.38125 -17.375 102.0625 C-20 101 -20 101 -22 100 C-22.268125 100.845625 -22.53625 101.69125 -22.8125 102.5625 C-24 106 -24 106 -25.5 109.4375 C-26.96567445 112.91847681 -28.0014346 116.36236891 -29 120 C-29.33 120.66 -29.66 121.32 -30 122 C-30.66 122 -31.32 122 -32 122 C-32.33056805 116.52804379 -31.34585496 112.52611431 -29.0625 107.625 C-28.64581055 106.68333984 -28.64581055 106.68333984 -28.22070312 105.72265625 C-26.18878425 101.18878425 -26.18878425 101.18878425 -25 100 C-24.03864546 94.54826795 -24.75566873 90.76403712 -27.875 86.1875 C-28.40867187 85.47980469 -28.94234375 84.77210937 -29.4921875 84.04296875 C-32.98935522 79.30457828 -33.3105017 75.52087265 -33.25 69.6875 C-33.25773437 68.95337891 -33.26546875 68.21925781 -33.2734375 67.46289062 C-33.25622646 62.61367977 -32.53184184 58.60160426 -31 54 C-31.88751953 54.08701172 -31.88751953 54.08701172 -32.79296875 54.17578125 C-36.84256369 54.40699793 -39.26318313 54.46888346 -42.75 52.25 C-47.6403042 45.18622726 -50.55179644 37.88830142 -50.56640625 29.25390625 C-49.62024882 25.4888522 -47.63914414 23.0051737 -44.31713867 20.96801758 C-42.33787398 19.9631837 -40.33679169 19.03557859 -38.3125 18.125 C-32.53302252 15.39751057 -27.50761034 12.50548444 -22.6015625 8.34765625 C-19.94897677 6.1156024 -18.25155086 5.87851021 -14.8671875 5.90234375 C-14.06152344 5.90556641 -13.25585938 5.90878906 -12.42578125 5.91210938 C-11.58402344 5.92048828 -10.74226563 5.92886719 -9.875 5.9375 C-9.02550781 5.94201172 -8.17601562 5.94652344 -7.30078125 5.95117188 C-5.20049091 5.96297126 -3.1002367 5.98090694 -1 6 C-0.67 4.02 -0.34 2.04 0 0 Z " fill="#492219" transform="translate(54,32)"/>
<path d="M0 0 C11.63999328 0.38163912 19.84841063 6.51453257 28.58496094 13.65991211 C31.30768139 15.85886936 33.46935089 17.54909782 37 18 C36.505 17.01 36.505 17.01 36 16 C35.01 15.67 34.02 15.34 33 15 C34.51182326 10.70013905 37.73275105 8.78177243 41.375 6.375 C42.24125 5.78332031 42.24125 5.78332031 43.125 5.1796875 C51.26130008 -0.31881666 51.26130008 -0.31881666 57 0 C57.54187034 8.52944052 56.24058226 16.77767977 54 25 C49.16880547 29.83119453 39.52157776 28.16350965 33.04492188 28.18554688 C32.30814209 28.18546631 31.5713623 28.18538574 30.81225586 28.18530273 C28.57190996 28.18749081 26.33205608 28.20569283 24.09179688 28.22460938 C22.64583499 28.22754399 21.1998708 28.22952833 19.75390625 28.23046875 C18.45783447 28.23457764 17.1617627 28.23868652 15.82641602 28.24291992 C11.61527203 27.97557555 8.0535187 27.13647163 4 26 C1.02352945 17.01743708 -0.62596368 9.49378254 0 0 Z " fill="#E27F39" transform="translate(53,6)"/>
<path d="M0 0 C4.33476501 0.05408798 6.83180007 1.76543248 10.4375 4.0625 C16.37045506 7.47655133 21.18023303 8.2773595 28 8.3125 C28.83563477 8.32732422 29.67126953 8.34214844 30.53222656 8.35742188 C35.97865605 8.22315602 39.45246628 6.98809387 43.88745117 3.82519531 C47.89156222 1.01639803 50.74045925 0.13232254 55.6875 0.5625 C58.47437566 3.34937566 57.98720742 5.10679058 58 9 C57.92978105 14.72284407 57.1319517 19.57105922 55.421875 25.0078125 C54.32090847 28.83777054 54.01246388 32.59794072 53.6875 36.5625 C54.6775 36.8925 55.6675 37.2225 56.6875 37.5625 C57.0175 38.2225 57.3475 38.8825 57.6875 39.5625 C55.50363582 40.24098208 53.31519916 40.9047551 51.125 41.5625 C49.90683594 41.93375 48.68867187 42.305 47.43359375 42.6875 C43.70826651 43.55764943 40.49684051 43.71938404 36.6875 43.5625 C36.6875 43.2325 36.6875 42.9025 36.6875 42.5625 C34.74810547 42.48902344 34.74810547 42.48902344 32.76953125 42.4140625 C5.04112546 41.26316276 5.04112546 41.26316276 -0.3125 37.5625 C-0.63865466 35.57295656 -0.95084092 33.57656799 -1.10546875 31.56640625 C-1.37095339 28.99671526 -2.3444425 26.95417147 -3.3125 24.5625 C-5.26838812 17.39091024 -6.11042874 9.9785436 -5.3125 2.5625 C-3.3125 0.5625 -3.3125 0.5625 0 0 Z M-2.3125 3.5625 C-2.93846368 13.05628254 -1.28897055 20.57993708 1.6875 29.5625 C7.09638442 31.07897103 11.78067463 31.81091475 17.44140625 31.79296875 C18.14595444 31.79251053 18.85050262 31.79205231 19.57640076 31.7915802 C21.05282292 31.78858377 22.52924266 31.7807769 24.00561523 31.76831055 C26.24799979 31.75001632 28.48997028 31.74780166 30.73242188 31.74804688 C42.03269161 32.55985209 42.03269161 32.55985209 51.6875 28.5625 C53.92808226 20.34017977 55.22937034 12.09194052 54.6875 3.5625 C45.38001044 3.7693331 37.24333743 10.36103216 30.6875 16.5625 C30.6875 17.2225 30.6875 17.8825 30.6875 18.5625 C31.6775 18.8925 32.6675 19.2225 33.6875 19.5625 C34.1825 20.5525 34.1825 20.5525 34.6875 21.5625 C29.90595228 20.00804247 26.48022619 17.28131748 22.5625 14.25 C14.9017526 8.48966576 7.63327965 3.14388228 -2.3125 3.5625 Z " fill="#502519" transform="translate(55.3125,2.4375)"/>
<path d="M0 0 C1.5 1.125 1.5 1.125 3 3 C3.06012319 4.9990961 3.06500629 7.00105673 3 9 C15.30313017 10.97386668 27.55800242 11.58054935 40 12 C36.67620169 15.32379831 32.42662915 14.29694782 27.90625 14.32226562 C27.24367188 14.32009033 26.58109375 14.31791504 25.8984375 14.31567383 C23.90359024 14.31254484 21.90876066 14.33673865 19.9140625 14.36132812 C12.8334007 14.36491146 7.43832285 13.96102112 1 11 C-1.7480594 10.51244107 -4.23958011 10.16622967 -7 10 C-8.24523438 9.92072266 -8.24523438 9.92072266 -9.515625 9.83984375 C-17.15565177 9.57678894 -21.25298132 11.55343189 -27.125 16.375 C-31.5733351 19.95943356 -36.17029731 21.9641087 -41.49609375 23.95703125 C-44.11549861 24.86159712 -44.11549861 24.86159712 -46 27 C-47.48858672 34.86600563 -44.82719627 42.18651256 -41 49 C-38.14080976 51.32911899 -38.14080976 51.32911899 -34.6875 50.875 C-27.29106378 49.11991344 -23.88970576 45.03772467 -19.8125 38.94921875 C-16.62577262 33.76391881 -13.78906017 28.4085726 -11 23 C-10.34 23 -9.68 23 -9 23 C-9.61515379 27.54000825 -11.42279234 31.25860285 -13.5625 35.25 C-14.09061279 36.23818726 -14.09061279 36.23818726 -14.62939453 37.24633789 C-17.67955228 42.76435054 -21.19924577 47.84160021 -26 52 C-26.66 52 -27.32 52 -28 52 C-30.56578399 68.55089143 -30.56578399 68.55089143 -26 84 C-15.52716291 96.21830993 2.92193244 99.83718214 18.25097656 101.31298828 C24.82865888 101.75742628 31.40806653 101.95342358 38 102 C38.33 102.66 38.66 103.32 39 104 C18.12709185 104.46940573 0.08214006 103.95145334 -19 95 C-19.495 94.505 -19.495 94.505 -20 94 C-20 94.99 -20 95.98 -20 97 C-13.63395394 100.89757922 -7.99495516 101.701447 -0.5859375 102.3125 C3.63127452 103.12102867 5.63010418 104.42851026 9 107 C8.505 108.485 8.505 108.485 8 110 C6.906875 109.34 5.81375 108.68 4.6875 108 C-0.46005157 105.43993883 -5.34971395 105.10876039 -11 106 C-14.40277812 107.79433653 -14.40277812 107.79433653 -17 110 C-19.375 110.75 -19.375 110.75 -21 111 C-19.95125002 108.37812506 -19.35068687 107.20628639 -16.875 105.75 C-16.25625 105.5025 -15.6375 105.255 -15 105 C-15 104.34 -15 103.68 -15 103 C-15.78375 102.690625 -16.5675 102.38125 -17.375 102.0625 C-20 101 -20 101 -22 100 C-22.268125 100.845625 -22.53625 101.69125 -22.8125 102.5625 C-24 106 -24 106 -25.5 109.4375 C-26.96567445 112.91847681 -28.0014346 116.36236891 -29 120 C-29.33 120.66 -29.66 121.32 -30 122 C-30.66 122 -31.32 122 -32 122 C-32.33056805 116.52804379 -31.34585496 112.52611431 -29.0625 107.625 C-28.64581055 106.68333984 -28.64581055 106.68333984 -28.22070312 105.72265625 C-26.18878425 101.18878425 -26.18878425 101.18878425 -25 100 C-24.03864546 94.54826795 -24.75566873 90.76403712 -27.875 86.1875 C-28.40867187 85.47980469 -28.94234375 84.77210937 -29.4921875 84.04296875 C-32.98935522 79.30457828 -33.3105017 75.52087265 -33.25 69.6875 C-33.25773437 68.95337891 -33.26546875 68.21925781 -33.2734375 67.46289062 C-33.25622646 62.61367977 -32.53184184 58.60160426 -31 54 C-31.88751953 54.08701172 -31.88751953 54.08701172 -32.79296875 54.17578125 C-36.84256369 54.40699793 -39.26318313 54.46888346 -42.75 52.25 C-47.6403042 45.18622726 -50.55179644 37.88830142 -50.56640625 29.25390625 C-49.62024882 25.4888522 -47.63914414 23.0051737 -44.31713867 20.96801758 C-42.33787398 19.9631837 -40.33679169 19.03557859 -38.3125 18.125 C-32.53302252 15.39751057 -27.50761034 12.50548444 -22.6015625 8.34765625 C-19.94897677 6.1156024 -18.25155086 5.87851021 -14.8671875 5.90234375 C-14.06152344 5.90556641 -13.25585938 5.90878906 -12.42578125 5.91210938 C-11.58402344 5.92048828 -10.74226563 5.92886719 -9.875 5.9375 C-9.02550781 5.94201172 -8.17601562 5.94652344 -7.30078125 5.95117188 C-5.20049091 5.96297126 -3.1002367 5.98090694 -1 6 C-0.67 4.02 -0.34 2.04 0 0 Z " fill="#4D2116" transform="translate(54,32)"/>
<path d="M0 0 C0.87140625 0.39832031 1.7428125 0.79664062 2.640625 1.20703125 C15.78024656 7.05160318 28.4396745 10.19466276 42.875 10.09765625 C44.08990112 10.09553383 44.08990112 10.09553383 45.3293457 10.09336853 C47.88626994 10.08782383 50.44310276 10.07528207 53 10.0625 C54.74609247 10.05747784 56.49218634 10.05291619 58.23828125 10.04882812 C62.49222209 10.0378726 66.74609561 10.02064694 71 10 C70.20634033 10.78850342 69.41268066 11.57700684 68.5949707 12.3894043 C67.18276523 13.81011303 65.7855031 15.24978688 64.48046875 16.76953125 C62.46361214 18.44581049 60.90099223 18.4999281 58.3125 18.6875 C57.10013672 18.78611328 57.10013672 18.78611328 55.86328125 18.88671875 C54.94095703 18.94279297 54.94095703 18.94279297 54 19 C54.061875 19.928125 54.12375 20.85625 54.1875 21.8125 C54 25 54 25 52.9375 26.9375 C49.78433176 28.66665678 47.37491745 27.8590699 44 27 C41.8480563 23.77208445 41.79913557 22.71599191 42 19 C39.03 19 36.06 19 33 19 C33.12375 20.2375 33.2475 21.475 33.375 22.75 C33.5859375 24.859375 33.5859375 24.859375 33 27 C28.23916525 31.31568538 24.16537764 31.62155109 18.0625 31.5 C17.28970703 31.51546875 16.51691406 31.5309375 15.72070312 31.546875 C10.04232443 31.50847514 6.70747443 30.15921054 2 27 C2 26.01 2 25.02 2 24 C6.75 25.875 6.75 25.875 9 27 C11.80351538 27.12479416 14.5713374 27.18517138 17.375 27.1875 C18.14328125 27.19974609 18.9115625 27.21199219 19.703125 27.22460938 C25.12803523 27.25317313 25.12803523 27.25317313 30 25 C29.96691359 23.228373 29.89743679 21.45739906 29.8125 19.6875 C29.77769531 18.70136719 29.74289063 17.71523437 29.70703125 16.69921875 C29.23610438 13.85719109 29.23610438 13.85719109 26.90234375 12.19921875 C23.45311219 10.77403155 20.46617489 10.43850447 16.75 10.125 C10.25679272 9.45955941 5.33768416 7.78990041 0 4 C0 2.68 0 1.36 0 0 Z " fill="#3B0E05" transform="translate(33,125)"/>
<path d="M0 0 C2.97 0 5.94 0 9 0 C9.66 2.31 10.32 4.62 11 7 C14.40320934 7.67673447 14.40320934 7.67673447 18 8 C20.5654594 5.4345406 20.54046087 3.52313332 21 0 C23.97 0 26.94 0 30 0 C30.144375 1.093125 30.28875 2.18625 30.4375 3.3125 C30.88288104 6.93122987 30.88288104 6.93122987 32 10 C35.38570149 11.3462194 39.14822622 11.31037584 42.75 11.5625 C43.92046875 11.64628906 45.0909375 11.73007813 46.296875 11.81640625 C47.18890625 11.87699219 48.0809375 11.93757812 49 12 C49 12.33 49 12.66 49 13 C40.95347874 14.0241225 33.00178418 14.13082822 24.8984375 14.09765625 C23.58082428 14.0962413 22.26321106 14.09482635 20.90567017 14.09336853 C17.43697135 14.08958728 13.96831576 14.07979562 10.49963379 14.06866455 C6.94637639 14.0583549 3.39311186 14.05385063 -0.16015625 14.04882812 C-7.10678836 14.03816849 -14.05339209 14.02114623 -21 14 C-17.76722038 10.76722038 -13.67244881 11.59731575 -9.26171875 11.44140625 C-5.7105606 10.96083036 -3.77883754 10.24953515 -1 8 C-0.19363191 5.97873076 -0.19363191 5.97873076 -0.1875 3.8125 C-0.0946875 1.9253125 -0.0946875 1.9253125 0 0 Z " fill="#F3F0EF" transform="translate(66,144)"/>
<path d="M0 0 C1.51400391 0.01740234 1.51400391 0.01740234 3.05859375 0.03515625 C4.07050781 0.04417969 5.08242187 0.05320312 6.125 0.0625 C7.29869141 0.07990234 7.29869141 0.07990234 8.49609375 0.09765625 C9.15609375 1.41765625 9.81609375 2.73765625 10.49609375 4.09765625 C9.81546875 4.67515625 9.13484375 5.25265625 8.43359375 5.84765625 C6.22957415 7.8803089 6.22957415 7.8803089 6.62109375 10.28515625 C7.35808623 12.28325756 7.35808623 12.28325756 9.49609375 13.09765625 C12.9539539 13.59773419 12.9539539 13.59773419 16.49609375 13.09765625 C18.50473734 10.72495885 18.50473734 10.72495885 19.49609375 8.09765625 C20.48609375 8.42765625 21.47609375 8.75765625 22.49609375 9.09765625 C21.22699912 13.01069804 20.03352399 14.95375913 16.49609375 17.09765625 C15.50609375 17.42765625 14.51609375 17.75765625 13.49609375 18.09765625 C12.47918111 20.08911016 11.47966727 22.08952699 10.49609375 24.09765625 C6.79923475 26.56222892 3.78622495 26.77504539 -0.50390625 26.09765625 C-3.88577001 24.15488345 -5.20655216 23.10408546 -6.31640625 19.34765625 C-6.37828125 18.60515625 -6.44015625 17.86265625 -6.50390625 17.09765625 C-7.43203125 17.01515625 -8.36015625 16.93265625 -9.31640625 16.84765625 C-12.50390625 16.09765625 -12.50390625 16.09765625 -14.44140625 14.28515625 C-15.50390625 12.09765625 -15.50390625 12.09765625 -15.19140625 9.84765625 C-14.96453125 9.27015625 -14.73765625 8.69265625 -14.50390625 8.09765625 C-13.84390625 8.09765625 -13.18390625 8.09765625 -12.50390625 8.09765625 C-11.84390625 9.74765625 -11.18390625 11.39765625 -10.50390625 13.09765625 C-7.21391343 13.51597029 -7.21391343 13.51597029 -3.50390625 13.09765625 C-0.56417344 10.74347249 -0.56417344 10.74347249 1.49609375 8.09765625 C0.85671875 7.87078125 0.21734375 7.64390625 -0.44140625 7.41015625 C-2.50390625 6.09765625 -2.50390625 6.09765625 -3.31640625 3.53515625 C-3.37828125 2.73078125 -3.44015625 1.92640625 -3.50390625 1.09765625 C-2.50390625 0.09765625 -2.50390625 0.09765625 0 0 Z " fill="#481C13" transform="translate(77.50390625,99.90234375)"/>
<path d="M0 0 C3.08319272 1.23720472 5.46197777 2.8758519 8 5 C13.11021851 9.1131027 17.95449518 12.37527908 24.1875 14.4375 C28.04617514 15.85359631 30.03865125 17.24074824 32 21 C33.32321098 29.33622917 30.11992501 36.82364472 26 44 C23.60701446 46.35847133 22.0921041 47.80940592 18.76171875 48.390625 C15.88085938 48.1953125 15.88085938 48.1953125 13 48 C12.67 50.64 12.34 53.28 12 56 C10.74494312 53.66918008 9.90950024 51.64554263 9.25 49.0625 C7.87750233 45.69988072 6.3140957 44.6463859 3.55078125 42.43432617 C1.00682457 40.08140654 -0.52863382 37.15349716 -2.125 34.125 C-2.44597656 33.53847656 -2.76695313 32.95195313 -3.09765625 32.34765625 C-3.74339131 31.1676986 -4.38310793 29.98442632 -5.01660156 28.79785156 C-6.04584627 26.91618373 -7.14221142 25.08322047 -8.2421875 23.2421875 C-10 20 -10 20 -10 17 C-8.12280273 17.28833008 -8.12280273 17.28833008 -6 18 C-4.51498971 20.55964995 -3.26456563 23.00010971 -2.0625 25.6875 C-0.12897284 29.94590952 1.68057844 33.83189587 4.75390625 37.39453125 C7 40 7 40 7 42 C11.39322929 44.05932623 15.16940788 44.92332393 20 45 C24.7877673 41.14318745 27.43600101 33.68148788 28.35546875 27.6796875 C28.46626779 24.82001709 28.5488592 22.67601637 26.69433594 20.3918457 C23.8776566 18.07802886 20.53052751 16.72481678 17.25 15.1875 C11.39755109 12.37129871 6.73062389 9.51059488 2 5 C-1.71279469 3.76240177 -5.31306346 3.64391103 -9.1875 3.4375 C-9.93708984 3.39431641 -10.68667969 3.35113281 -11.45898438 3.30664062 C-13.30578375 3.20077315 -15.15286834 3.0999024 -17 3 C-12.08115205 -1.4890457 -6.29094194 -0.81270542 0 0 Z " fill="#53271A" transform="translate(126,38)"/>
<path d="M0 0 C1.11890625 0.16298584 2.2378125 0.32597168 3.390625 0.49389648 C8.18864544 1.09095042 12.92069803 1.12679055 17.75 1.09765625 C18.64871826 1.0962413 19.54743652 1.09482635 20.47338867 1.09336853 C23.31562775 1.08781583 26.15778513 1.07527237 29 1.0625 C30.93880094 1.05747888 32.87760312 1.05291705 34.81640625 1.04882812 C39.54430183 1.03786194 44.27213711 1.02063044 49 1 C49 2.65 49 4.3 49 6 C34.80430855 9.56483731 13.72125555 12.86062777 0 6 C0 4.02 0 2.04 0 0 Z " fill="#F4F1F0" transform="translate(57,35)"/>
<path d="M0 0 C0.87140625 0.39832031 1.7428125 0.79664062 2.640625 1.20703125 C15.78024656 7.05160318 28.4396745 10.19466276 42.875 10.09765625 C44.08990112 10.09553383 44.08990112 10.09553383 45.3293457 10.09336853 C47.88626994 10.08782383 50.44310276 10.07528207 53 10.0625 C54.74609247 10.05747784 56.49218634 10.05291619 58.23828125 10.04882812 C62.49222209 10.0378726 66.74609561 10.02064694 71 10 C64.85276074 16.14723926 64.85276074 16.14723926 58.8125 16.625 C57.68457031 16.72039062 56.55664062 16.81578125 55.39453125 16.9140625 C52.1060997 16.99731393 49.22728948 16.56417801 46 16 C45.505 16.495 45.505 16.495 45 17 C38.36288725 17.60083336 32.75497646 17.04644085 27.28125 12.98046875 C23.53093512 10.71688584 21.02480117 10.39128815 16.6875 10.0625 C10.08520696 9.35278605 5.40304764 7.83631025 0 4 C0 2.68 0 1.36 0 0 Z " fill="#BC6A39" transform="translate(33,125)"/>
<path d="M0 0 C1.51400391 0.01740234 1.51400391 0.01740234 3.05859375 0.03515625 C4.07050781 0.04417969 5.08242187 0.05320312 6.125 0.0625 C7.29869141 0.07990234 7.29869141 0.07990234 8.49609375 0.09765625 C9.15609375 1.41765625 9.81609375 2.73765625 10.49609375 4.09765625 C9.81546875 4.67515625 9.13484375 5.25265625 8.43359375 5.84765625 C6.22957415 7.8803089 6.22957415 7.8803089 6.62109375 10.28515625 C7.35808623 12.28325756 7.35808623 12.28325756 9.49609375 13.09765625 C12.9539539 13.59773419 12.9539539 13.59773419 16.49609375 13.09765625 C18.50473734 10.72495885 18.50473734 10.72495885 19.49609375 8.09765625 C20.48609375 8.42765625 21.47609375 8.75765625 22.49609375 9.09765625 C21.22699912 13.01069804 20.03352399 14.95375913 16.49609375 17.09765625 C15.50609375 17.42765625 14.51609375 17.75765625 13.49609375 18.09765625 C13.16609375 19.08765625 12.83609375 20.07765625 12.49609375 21.09765625 C11.50609375 21.09765625 10.51609375 21.09765625 9.49609375 21.09765625 C9.82609375 19.77765625 10.15609375 18.45765625 10.49609375 17.09765625 C9.69171875 16.82953125 8.88734375 16.56140625 8.05859375 16.28515625 C7.21296875 15.89328125 6.36734375 15.50140625 5.49609375 15.09765625 C5.16609375 14.10765625 4.83609375 13.11765625 4.49609375 12.09765625 C3.50609375 12.09765625 2.51609375 12.09765625 1.49609375 12.09765625 C1.49609375 10.77765625 1.49609375 9.45765625 1.49609375 8.09765625 C0.85671875 7.87078125 0.21734375 7.64390625 -0.44140625 7.41015625 C-2.50390625 6.09765625 -2.50390625 6.09765625 -3.31640625 3.53515625 C-3.37828125 2.73078125 -3.44015625 1.92640625 -3.50390625 1.09765625 C-2.50390625 0.09765625 -2.50390625 0.09765625 0 0 Z " fill="#461E19" transform="translate(77.50390625,99.90234375)"/>
<path d="M0 0 C0 1.32 0 2.64 0 4 C-10.0872466 10.21849084 -24.18773824 13.06881421 -36 11 C-36.66 10.01 -37.32 9.02 -38 8 C-36.70707031 7.76925781 -35.41414063 7.53851563 -34.08203125 7.30078125 C-24.81605793 5.58287711 -16.24630728 3.76829665 -7.62890625 -0.14453125 C-4.63589281 -1.11848362 -2.98262978 -0.88233876 0 0 Z " fill="#562A1D" transform="translate(129,125)"/>
<path d="M0 0 C1 1 1 1 1.09765625 4.16015625 C1.08605469 5.44792969 1.07445312 6.73570313 1.0625 8.0625 C1.05347656 9.35285156 1.04445312 10.64320312 1.03515625 11.97265625 C1.02355469 12.97167969 1.01195312 13.97070312 1 15 C0.34 14.67 -0.32 14.34 -1 14 C-1 10.37 -1 6.74 -1 3 C-10.62505333 5.63912753 -18.28541595 10.61395754 -25 18 C-23.68 18.33 -22.36 18.66 -21 19 C-21 19.66 -21 20.32 -21 21 C-26.03985731 20.55530671 -28.37634988 18.28656638 -32 15 C-29.95374783 14.48843696 -27.96396774 13.99470114 -25.875 13.6875 C-23.44905558 13.04111308 -23.44905558 13.04111308 -22 9 C-25.63 9 -29.26 9 -33 9 C-33 8.34 -33 7.68 -33 7 C-32.01 7.05800781 -31.02 7.11601562 -30 7.17578125 C-21.95730472 7.50363894 -16.46439016 7.16525121 -10 2 C-6.51371151 -0.00088542 -4.03661046 -0.26910736 0 0 Z " fill="#4A1B10" transform="translate(111,3)"/>
<path d="M0 0 C0.82757813 0.44730469 1.65515625 0.89460938 2.5078125 1.35546875 C20.672073 10.73409466 39.79153591 12.85721368 60 13 C60.495 13.99 60.495 13.99 61 15 C17.95213923 15.96809282 17.95213923 15.96809282 0 4 C0 2.68 0 1.36 0 0 Z " fill="#542618" transform="translate(32,121)"/>
<path d="M0 0 C1.87719727 0.28833008 1.87719727 0.28833008 4 1 C5.48501029 3.55964995 6.73543437 6.00010971 7.9375 8.6875 C9.87102716 12.94590952 11.68057844 16.83189587 14.75390625 20.39453125 C17 23 17 23 17 25 C21.79872101 27.23940314 26.82855847 28.0560864 32 29 C31.67 29.66 31.34 30.32 31 31 C28.36 31 25.72 31 23 31 C22.67 33.64 22.34 36.28 22 39 C20.74494312 36.66918008 19.90950024 34.64554263 19.25 32.0625 C17.87750233 28.69988072 16.3140957 27.6463859 13.55078125 25.43432617 C11.00682457 23.08140654 9.47136618 20.15349716 7.875 17.125 C7.55402344 16.53847656 7.23304687 15.95195313 6.90234375 15.34765625 C6.25660869 14.1676986 5.61689207 12.98442632 4.98339844 11.79785156 C3.95415373 9.91618373 2.85778858 8.08322047 1.7578125 6.2421875 C0 3 0 3 0 0 Z " fill="#571E07" transform="translate(116,55)"/>
<path d="M0 0 C0.33 0 0.66 0 1 0 C1.31240049 7.92571624 1.12122584 14.85692823 -1.265625 22.4453125 C-2.36659153 26.27527054 -2.67503612 30.03544072 -3 34 C-1.515 34.495 -1.515 34.495 0 35 C0.33 35.66 0.66 36.32 1 37 C-1.18386418 37.67848208 -3.37230084 38.3422551 -5.5625 39 C-6.78066406 39.37125 -7.99882813 39.7425 -9.25390625 40.125 C-12.97923349 40.99514943 -16.19065949 41.15688404 -20 41 C-20.495 39.515 -20.495 39.515 -21 38 C-19.2508503 37.66223316 -17.50063855 37.32996329 -15.75 37 C-14.77546875 36.814375 -13.8009375 36.62875 -12.796875 36.4375 C-10 36 -10 36 -6 36 C-6 34.35 -6 32.7 -6 31 C-7.32 30.67 -8.64 30.34 -10 30 C-8.35 30 -6.7 30 -5 30 C-5.04125 28.906875 -5.0825 27.81375 -5.125 26.6875 C-5.14420838 21.33796618 -4.07503069 16.22157765 -3 11 C-2.34 11.33 -1.68 11.66 -1 12 C-0.67 8.04 -0.34 4.08 0 0 Z " fill="#593226" transform="translate(112,5)"/>
<path d="M0 0 C-6.14723926 6.14723926 -6.14723926 6.14723926 -12.1875 6.625 C-13.31542969 6.72039062 -14.44335938 6.81578125 -15.60546875 6.9140625 C-18.90985862 6.99771794 -21.7617854 6.60632312 -25 6 C-27.33302989 5.96237049 -29.66713319 5.95334266 -32 6 C-32 5.67 -32 5.34 -32 5 C-30.02 5 -28.04 5 -26 5 C-26 4.34 -26 3.68 -26 3 C-28.64 3 -31.28 3 -34 3 C-34 2.67 -34 2.34 -34 2 C-33.43079834 1.97494385 -32.86159668 1.9498877 -32.27514648 1.92407227 C-29.66242687 1.80706106 -27.04997638 1.6848172 -24.4375 1.5625 C-23.09461914 1.50352539 -23.09461914 1.50352539 -21.72460938 1.44335938 C-14.43532243 1.09625047 -7.30083702 -0.14899667 0 0 Z " fill="#D0773F" transform="translate(104,135)"/>
<path d="M0 0 C2.31 0.33 4.62 0.66 7 1 C5.68 1.33 4.36 1.66 3 2 C3.12375 3.2375 3.2475 4.475 3.375 5.75 C3.5859375 7.859375 3.5859375 7.859375 3 10 C-1.76083475 14.31568538 -5.83462236 14.62155109 -11.9375 14.5 C-12.71029297 14.51546875 -13.48308594 14.5309375 -14.27929688 14.546875 C-19.95767557 14.50847514 -23.29252557 13.15921054 -28 10 C-28 9.01 -28 8.02 -28 7 C-23.25 8.875 -23.25 8.875 -21 10 C-18.19648462 10.12479416 -15.4286626 10.18517138 -12.625 10.1875 C-11.47257812 10.20586914 -11.47257812 10.20586914 -10.296875 10.22460938 C-4.87196477 10.25317313 -4.87196477 10.25317313 0 8 C0 5.36 0 2.72 0 0 Z " fill="#391A16" transform="translate(63,142)"/>
<path d="M0 0 C0.66 0 1.32 0 2 0 C1.38484621 4.54000825 -0.42279234 8.25860285 -2.5625 12.25 C-2.9145752 12.9087915 -3.26665039 13.56758301 -3.62939453 14.24633789 C-6.67955228 19.76435054 -10.19924577 24.84160021 -15 29 C-15.66 29 -16.32 29 -17 29 C-17.33 29.99 -17.66 30.98 -18 32 C-18 31.01 -18 30.02 -18 29 C-19.32 28.67 -20.64 28.34 -22 28 C-21.25556641 27.63261719 -21.25556641 27.63261719 -20.49609375 27.2578125 C-10.02083723 21.49343984 -5.28052482 10.2400451 0 0 Z " fill="#581C08" transform="translate(43,55)"/>
<path d="M0 0 C2.5625 0.3125 2.5625 0.3125 4.375 1.4375 C6.11448782 4.18405972 5.96019128 6.13096974 5.5625 9.3125 C4.375 11.1875 4.375 11.1875 2.5625 12.3125 C0 12.625 0 12.625 -2.4375 12.3125 C-4.4375 10.3125 -4.4375 10.3125 -4.703125 8.4375 C-4.69796875 7.73625 -4.6928125 7.035 -4.6875 6.3125 C-4.69265625 5.61125 -4.6978125 4.91 -4.703125 4.1875 C-4.26410186 1.08851312 -2.98750291 0.38301319 0 0 Z " fill="#48180C" transform="translate(56.4375,84.6875)"/>
<path d="M0 0 C2.3431213 0.25561323 4.67843403 0.59270772 7 1 C8.39935013 3.79870027 8.25265405 5.90498792 8 9 C6.8125 10.9375 6.8125 10.9375 5 12 C1.65807308 11.75546876 0.39456443 11.39456443 -2 9 C-2.34490322 4.94738713 -2.30163882 3.45245824 0 0 Z " fill="#4B1A0D" transform="translate(102,85)"/>
<path d="M0 0 C0.61875 0.433125 1.2375 0.86625 1.875 1.3125 C2.6175 1.68375 3.36 2.055 4.125 2.4375 C4.7025 2.72625 5.28 3.015 5.875 3.3125 C4.125 8.1875 4.125 8.1875 1.875 9.3125 C-1.5625 9.625 -1.5625 9.625 -5.125 9.3125 C-7.0625 7.5 -7.0625 7.5 -8.125 5.3125 C-8.125 4.3225 -8.125 3.3325 -8.125 2.3125 C-2.72149123 -0.88048246 -2.72149123 -0.88048246 0 0 Z " fill="#DA7330" transform="translate(82.125,113.6875)"/>
<path d="M0 0 C0.66 0 1.32 0 2 0 C2 2.97 2 5.94 2 9 C1.67 9 1.34 9 1 9 C1 7.35 1 5.7 1 4 C0.42096924 4.14219971 -0.15806152 4.28439941 -0.75463867 4.4309082 C-7.67264873 5.98833025 -14.23961072 6.27091707 -21.3125 6.1875 C-22.89901367 6.1865332 -22.89901367 6.1865332 -24.51757812 6.18554688 C-29.16740453 6.15914408 -33.44939128 6.02967729 -38 5 C-38 4.67 -38 4.34 -38 4 C-37.01157104 3.970271 -37.01157104 3.970271 -36.00317383 3.93994141 C-17.0207578 4.94795883 -17.0207578 4.94795883 0 0 Z " fill="#431911" transform="translate(106,31)"/>
<path d="M0 0 C3.78202963 6.15714424 2.73147307 14.49641025 1.3125 21.29296875 C-0.95969164 28.45983989 -0.95969164 28.45983989 -5.25 30.6875 C-6.1575 30.790625 -7.065 30.89375 -8 31 C-7.65066406 30.39671875 -7.30132812 29.7934375 -6.94140625 29.171875 C-6.48636719 28.37265625 -6.03132812 27.5734375 -5.5625 26.75 C-5.11003906 25.96109375 -4.65757812 25.1721875 -4.19140625 24.359375 C-1.51470285 19.05862466 -1.67293557 13.49383691 -1.39453125 7.66796875 C-1.10159485 2.2031897 -1.10159485 2.2031897 0 0 Z " fill="#432520" transform="translate(139,89)"/>
<path d="M0 0 C0.33 0 0.66 0 1 0 C1 2.64 1 5.28 1 8 C1.99 8.33 2.98 8.66 4 9 C3.34 9 2.68 9 2 9 C1.731875 9.845625 1.46375 10.69125 1.1875 11.5625 C-0 15 -0 15 -1.5 18.4375 C-2.96567445 21.91847681 -4.0014346 25.36236891 -5 29 C-5.33 29.66 -5.66 30.32 -6 31 C-6.66 31 -7.32 31 -8 31 C-8.33056805 25.52804379 -7.34585496 21.52611431 -5.0625 16.625 C-4.78470703 15.99722656 -4.50691406 15.36945313 -4.22070312 14.72265625 C-2.18878425 10.18878425 -2.18878425 10.18878425 -1 9 C-0.76807135 7.48530552 -0.58784762 5.96245438 -0.4375 4.4375 C-0.35371094 3.61121094 -0.26992188 2.78492187 -0.18359375 1.93359375 C-0.12300781 1.29550781 -0.06242187 0.65742187 0 0 Z " fill="#341511" transform="translate(30,123)"/>
<path d="M0 0 C0.99 0 1.98 0 3 0 C3.08681476 3.62484999 3.14032721 7.24943443 3.1875 10.875 C3.22520508 12.42380859 3.22520508 12.42380859 3.26367188 14.00390625 C3.27333984 14.99003906 3.28300781 15.97617188 3.29296875 16.9921875 C3.3086792 17.90339355 3.32438965 18.81459961 3.34057617 19.75341797 C3.22818604 20.49479004 3.1157959 21.23616211 3 22 C2.01 22.66 1.02 23.32 0 24 C-1.61770585 20.7645883 -1.14279662 17.23792649 -1.125 13.6875 C-1.12886719 12.92759766 -1.13273437 12.16769531 -1.13671875 11.38476562 C-1.12989371 7.45695562 -0.96449979 3.83503488 0 0 Z " fill="#4C261D" transform="translate(22,88)"/>
<path d="M0 0 C3.0009507 0.44131628 5.16475076 1.08595692 7.875 2.5 C11.30017617 4.14408456 14.23946434 4.62394643 18 5 C17.67 5.66 17.34 6.32 17 7 C14.36 7 11.72 7 9 7 C8.67 9.64 8.34 12.28 8 15 C6.73157978 12.64436244 5.86470326 10.52646142 5.125 7.9375 C3.88254147 4.69330273 2.81469443 3.87646296 0 2 C0 1.34 0 0.68 0 0 Z " fill="#4A190B" transform="translate(130,79)"/>
<path d="M0 0 C10.23 0.33 20.46 0.66 31 1 C31.33 1.66 31.66 2.32 32 3 C27.79172527 3.05828635 23.58355511 3.093693 19.375 3.125 C17.59029297 3.15013672 17.59029297 3.15013672 15.76953125 3.17578125 C14.03896484 3.18544922 14.03896484 3.18544922 12.2734375 3.1953125 C10.68668213 3.21102295 10.68668213 3.21102295 9.06787109 3.22705078 C5.76636112 2.98270857 3.08587237 2.16882977 0 1 C0 0.67 0 0.34 0 0 Z " fill="#3B0F05" transform="translate(61,133)"/>
<path d="M0 0 C4.95 0.33 9.9 0.66 15 1 C14 5 14 5 12 7 C9.31160615 7.26991906 6.70858064 7.08737357 4 7 C3.896875 6.21625 3.79375 5.4325 3.6875 4.625 C3.22404978 1.66954819 3.22404978 1.66954819 0 0 Z " fill="#69311A" transform="translate(74,11)"/>
<path d="M0 0 C0 0.99 0 1.98 0 3 C-7.83687063 8.33574171 -15.89555825 7.37245444 -25 7 C-24.34 6.01 -23.68 5.02 -23 4 C-20.50258774 3.69262618 -18.18960882 3.53339325 -15.6875 3.5 C-9.71341402 3.35957095 -5.38701731 0 0 0 Z " fill="#583C38" transform="translate(127,149)"/>
<path d="M0 0 C11.55 0.33 23.1 0.66 35 1 C35 1.33 35 1.66 35 2 C28.73 2.33 22.46 2.66 16 3 C16 3.33 16 3.66 16 4 C10.82196838 4.17855281 6.84932556 4.07828238 2 2 C1.34 1.34 0.68 0.68 0 0 Z " fill="#683420" transform="translate(57,33)"/>
<path d="M0 0 C0 0.99 0 1.98 0 3 C-7.15360619 7.3449235 -12.65357353 8.71404789 -21 8 C-17.56226987 6.17952715 -14.01122863 4.812372 -10.375 3.4375 C-1.29673591 0 -1.29673591 0 0 0 Z " fill="#C67440" transform="translate(129,126)"/>
<path d="M0 0 C2.64 0.66 5.28 1.32 8 2 C2.95638876 7.04361124 -4.54834196 6.23497511 -11.20703125 6.265625 C-14 6 -14 6 -16 4 C-11.05 3.67 -6.1 3.34 -1 3 C-0.67 2.01 -0.34 1.02 0 0 Z " fill="#DB945F" transform="translate(52,96)"/>
<path d="M0 0 C5.28 2.31 10.56 4.62 16 7 C13 9 13 9 10.25 8.875 C6.29818619 7.81105013 3.47245901 6.15292458 0 4 C0 2.68 0 1.36 0 0 Z " fill="#CC7945" transform="translate(33,125)"/>
<path d="M0 0 C0.66 0.33 1.32 0.66 2 1 C2.59896093 3.30710878 2.95654965 5.61688718 3.33984375 7.96875 C3.55769531 8.6390625 3.77554688 9.309375 4 10 C4.99 10.33 5.98 10.66 7 11 C6.67 11.66 6.34 12.32 6 13 C5.01 13 4.02 13 3 13 C3 14.65 3 16.3 3 18 C2.67 18 2.34 18 2 18 C1.814375 16.1746875 1.814375 16.1746875 1.625 14.3125 C1.30763296 11.6615518 0.91789942 9.80387084 -0.125 7.3125 C-1.1951501 4.48424616 -0.81830027 2.86405095 0 0 Z " fill="#4E1F11" transform="translate(53,22)"/>
<path d="M0 0 C0.99 0.33 1.98 0.66 3 1 C1.3833652 7.03280791 -0.16709462 10.950809 -5 15 C-5.66 14.34 -6.32 13.68 -7 13 C-6.401875 12.34 -5.80375 11.68 -5.1875 11 C-2.57574169 7.41816003 -1.41905856 4.18622274 0 0 Z " fill="#512213" transform="translate(153,70)"/>
<path d="M0 0 C3.98042168 0.58809834 6.86247219 1.82031677 10.3125 3.875 C11.19550781 4.38804688 12.07851562 4.90109375 12.98828125 5.4296875 C13.65214844 5.94789062 14.31601563 6.46609375 15 7 C15 7.99 15 8.98 15 10 C11.34426939 8.62992438 8.04532353 6.98982135 4.6875 5 C3.80449219 4.484375 2.92148438 3.96875 2.01171875 3.4375 C1.34785156 2.963125 0.68398438 2.48875 0 2 C0 1.34 0 0.68 0 0 Z " fill="#4E1F12" transform="translate(63,6)"/>
<path d="M0 0 C0.33 0 0.66 0 1 0 C1.2475 1.11375 1.495 2.2275 1.75 3.375 C2.59135067 6.94872422 2.59135067 6.94872422 4.65625 8.1875 C7.70631604 9.24485623 10.53116697 9.43187002 13.75 9.625 C14.92046875 9.69976562 16.0909375 9.77453125 17.296875 9.8515625 C18.63492188 9.92503906 18.63492188 9.92503906 20 10 C20 10.33 20 10.66 20 11 C17.24894578 11.10812003 14.50214913 11.18734945 11.75 11.25 C10.58404297 11.30027344 10.58404297 11.30027344 9.39453125 11.3515625 C3.6263569 11.45016377 3.6263569 11.45016377 0.47265625 9.18359375 C-1.46621949 6.30870903 -1.37739185 4.39652661 -1 1 C-0.67 0.67 -0.34 0.34 0 0 Z " fill="#34130F" transform="translate(97,144)"/>
<path d="M0 0 C3.96 0 7.92 0 12 0 C12 0.33 12 0.66 12 1 C11.12988281 1.14695313 11.12988281 1.14695313 10.2421875 1.296875 C4.93571552 2.31263531 1.44242863 3.79731889 -3 7 C-5.375 7.75 -5.375 7.75 -7 8 C-5.84826645 5.53199953 -4.95216435 3.95216435 -3 2 C-2.01 2 -1.02 2 0 2 C0 1.34 0 0.68 0 0 Z " fill="#3A1813" transform="translate(40,135)"/>
<path d="M0 0 C0.53109375 0.38929687 1.0621875 0.77859375 1.609375 1.1796875 C0.03002861 2.16527199 -1.55427673 3.14291291 -3.140625 4.1171875 C-4.46320312 4.93509766 -4.46320312 4.93509766 -5.8125 5.76953125 C-8.07462417 7.00684462 -9.87628825 7.71559263 -12.390625 8.1796875 C-12.390625 7.5196875 -12.390625 6.8596875 -12.390625 6.1796875 C-13.050625 5.8496875 -13.710625 5.5196875 -14.390625 5.1796875 C-12.48455215 4.11876016 -10.56529754 3.08148649 -8.640625 2.0546875 C-7.03960937 1.18457031 -7.03960937 1.18457031 -5.40625 0.296875 C-2.390625 -0.8203125 -2.390625 -0.8203125 0 0 Z " fill="#58291C" transform="translate(26.390625,46.8203125)"/>
<path d="M0 0 C4.75 1.875 4.75 1.875 7 3 C9.54615009 3.23172827 12.07396225 3.41894529 14.625 3.5625 C15.33140625 3.60568359 16.0378125 3.64886719 16.765625 3.69335938 C18.51018537 3.79944751 20.25506697 3.90022889 22 4 C22 4.33 22 4.66 22 5 C21.25234375 5.06058594 20.5046875 5.12117187 19.734375 5.18359375 C18.74953125 5.26738281 17.7646875 5.35117188 16.75 5.4375 C15.28820312 5.55931641 15.28820312 5.55931641 13.796875 5.68359375 C11.07991006 5.90324321 11.07991006 5.90324321 8.875 6.65625 C5.35940917 7.30077498 2.8832025 4.82972466 0 3 C0 2.01 0 1.02 0 0 Z " fill="#775E5A" transform="translate(35,149)"/>
<path d="M0 0 C1.67542976 0.28604898 3.34385343 0.61781233 5 1 C5.625 2.875 5.625 2.875 6 5 C5.34 5.66 4.68 6.32 4 7 C1.375 6.625 1.375 6.625 -1 6 C-1.042721 4.33388095 -1.04063832 2.66617115 -1 1 C-0.67 0.67 -0.34 0.34 0 0 Z " fill="#D8BB57" transform="translate(79,143)"/>
<path d="M0 0 C0.33 0 0.66 0 1 0 C1 2.64 1 5.28 1 8 C1.99 8.33 2.98 8.66 4 9 C3.34 9 2.68 9 2 9 C1.566875 10.423125 1.566875 10.423125 1.125 11.875 C0 15 0 15 -2 17 C-2.99 17.33 -3.98 17.66 -5 18 C-3.94124926 14.59687262 -2.99097846 11.98646769 -1 9 C-0.54605448 6.72087062 -0.54605448 6.72087062 -0.375 4.3125 C-0.30023437 3.50425781 -0.22546875 2.69601563 -0.1484375 1.86328125 C-0.09945313 1.24839844 -0.05046875 0.63351563 0 0 Z " fill="#553834" transform="translate(30,123)"/>
<path d="M0 0 C-1 2 -1 2 -4.125 3.125 C-7.90058738 3.97755199 -11.14638912 4.15729024 -15 4 C-15.33 3.01 -15.66 2.02 -16 1 C-10.63904667 -0.12862175 -5.44693314 -0.09688221 0 0 Z " fill="#5C2E1D" transform="translate(107,42)"/>
<path d="M0 0 C1.21236328 0.01353516 1.21236328 0.01353516 2.44921875 0.02734375 C3.37154297 0.04474609 3.37154297 0.04474609 4.3125 0.0625 C0.8772952 2.35263653 -0.672831 2.24092973 -4.6875 2.0625 C-4.625625 3.01125 -4.56375 3.96 -4.5 4.9375 C-4.561875 5.96875 -4.62375 7 -4.6875 8.0625 C-5.6775 8.7225 -6.6675 9.3825 -7.6875 10.0625 C-8.3475 9.4025 -9.0075 8.7425 -9.6875 8.0625 C-9.0275 7.4025 -8.3675 6.7425 -7.6875 6.0625 C-7.52062552 3.47895782 -7.52062552 3.47895782 -7.6875 1.0625 C-4.80538698 0.10179566 -2.98899956 -0.04331883 0 0 Z " fill="#340E07" transform="translate(91.6875,141.9375)"/>
<path d="M0 0 C0.66 0.33 1.32 0.66 2 1 C2 2.65 2 4.3 2 6 C4.475 6.99 4.475 6.99 7 8 C7 8.66 7 9.32 7 10 C3.625 9.6875 3.625 9.6875 0 9 C-2.1519437 5.77208445 -2.20086443 4.71599191 -2 1 C-1.34 0.67 -0.68 0.34 0 0 Z " fill="#452218" transform="translate(77,143)"/>
<path d="M0 0 C0.53625 0.391875 1.0725 0.78375 1.625 1.1875 C0.7278125 1.2803125 0.7278125 1.2803125 -0.1875 1.375 C-3.24643458 2.5111757 -3.92541099 4.36080142 -5.375 7.1875 C-3.065 7.5175 -0.755 7.8475 1.625 8.1875 C1.625 8.5175 1.625 8.8475 1.625 9.1875 C-1.6875 9.4375 -1.6875 9.4375 -5.375 9.1875 C-7.3125 7.375 -7.3125 7.375 -8.375 5.1875 C-8.375 4.1975 -8.375 3.2075 -8.375 2.1875 C-2.95961538 -1.0125 -2.95961538 -1.0125 0 0 Z " fill="#D0743E" transform="translate(82.375,113.8125)"/>
<path d="M0 0 C0.268125 0.598125 0.53625 1.19625 0.8125 1.8125 C2.71162349 5.31088537 4.20036361 6.73345454 8 8 C8.6875 10.0625 8.6875 10.0625 9 12 C4.53828494 10.42527704 -0.79688514 8.40622971 -3 4 C-2.34 4 -1.68 4 -1 4 C-0.67 2.68 -0.34 1.36 0 0 Z " fill="#D88950" transform="translate(98,89)"/>
<path d="M0 0 C0 0.99 0 1.98 0 3 C-0.66 3.66 -1.32 4.32 -2 5 C-2.67651207 7.19704511 -2.67651207 7.19704511 -3.125 9.625 C-3.29257813 10.44226563 -3.46015625 11.25953125 -3.6328125 12.1015625 C-3.75398437 12.72804687 -3.87515625 13.35453125 -4 14 C-4.66 13.67 -5.32 13.34 -6 13 C-5.67 11.02 -5.34 9.04 -5 7 C-5.99 7 -6.98 7 -8 7 C-8 6.34 -8 5.68 -8 5 C-6.25 3.7109375 -6.25 3.7109375 -4 2.375 C-3.2575 1.92898437 -2.515 1.48296875 -1.75 1.0234375 C-1.1725 0.68570313 -0.595 0.34796875 0 0 Z " fill="#3E1711" transform="translate(134,118)"/>
<path d="M0 0 C0 0.66 0 1.32 0 2 C-8.78723404 4.53191489 -8.78723404 4.53191489 -13 3 C-13.33 2.34 -13.66 1.68 -14 1 C-9.23692563 0.04738513 -4.8333472 -0.08333357 0 0 Z " fill="#4F2315" transform="translate(105,132)"/>
<path d="M0 0 C5.61 0 11.22 0 17 0 C12.99551174 4.00448826 10.73877349 3.97149552 5.1875 4.0625 C4.135625 4.041875 3.08375 4.02125 2 4 C2 3.67 2 3.34 2 3 C3.98 3 5.96 3 8 3 C8 2.34 8 1.68 8 1 C5.36 1 2.72 1 0 1 C0 0.67 0 0.34 0 0 Z " fill="#DE8548" transform="translate(70,137)"/>
<path d="M0 0 C8.57142857 0.85714286 8.57142857 0.85714286 12 3 C12 3.66 12 4.32 12 5 C7.65535464 4.39174965 3.32448133 3.73832608 -1 3 C-0.67 2.01 -0.34 1.02 0 0 Z " fill="#57281A" transform="translate(51,130)"/>
<path d="M0 0 C0.99 0.33 1.98 0.66 3 1 C1.98823563 4.40320742 1.35156418 5.75725331 -1.625 7.8125 C-2.40875 8.204375 -3.1925 8.59625 -4 9 C-4 8.34 -4 7.68 -4 7 C-5.32 6.67 -6.64 6.34 -8 6 C-7.05125 5.7525 -6.1025 5.505 -5.125 5.25 C-1.91306809 4.3142923 -1.91306809 4.3142923 -0.625 1.875 C-0.41875 1.25625 -0.2125 0.6375 0 0 Z " fill="#4D2E2B" transform="translate(97,108)"/>
<path d="M0 0 C1.75570312 0.04060547 1.75570312 0.04060547 3.546875 0.08203125 C4.43890625 0.11683594 5.3309375 0.15164062 6.25 0.1875 C6.25 0.8475 6.25 1.5075 6.25 2.1875 C-2.165 2.6825 -2.165 2.6825 -10.75 3.1875 C-6.32129086 -0.13403186 -5.28391318 -0.1585174 0 0 Z " fill="#3C1610" transform="translate(119.75,37.8125)"/>
<path d="M0 0 C0.66 0 1.32 0 2 0 C2.20625 0.804375 2.4125 1.60875 2.625 2.4375 C3.07875 3.283125 3.5325 4.12875 4 5 C7.05272465 5.89830839 7.05272465 5.89830839 10 6 C10 6.33 10 6.66 10 7 C7.36 7.33 4.72 7.66 2 8 C0.4375 6.25 0.4375 6.25 -1 4 C-0.6875 1.75 -0.6875 1.75 0 0 Z " fill="#4C2F2B" transform="translate(63,108)"/>
<path d="M0 0 C4.95 0.33 9.9 0.66 15 1 C15 1.33 15 1.66 15 2 C14.2575 2.144375 13.515 2.28875 12.75 2.4375 C10.10519665 2.91221978 10.10519665 2.91221978 8.0625 3.6875 C5.04135382 4.14524942 2.80234675 3.08272488 0 2 C0 1.34 0 0.68 0 0 Z " fill="#592A1C" transform="translate(57,42)"/>
<path d="M0 0 C0.33 0.66 0.66 1.32 1 2 C-1.75 3.625 -1.75 3.625 -5 5 C-7.375 4.1875 -7.375 4.1875 -9 3 C-8.01 3 -7.02 3 -6 3 C-6 2.34 -6 1.68 -6 1 C-6.99 0.67 -7.98 0.34 -9 0 C-5.67032582 -0.83241855 -3.24733335 -1.2757381 0 0 Z " fill="#784835" transform="translate(111,131)"/>
<path d="M0 0 C2.60018816 3.90028225 2.15085514 7.47434569 2 12 C1.67 12 1.34 12 1 12 C0.67 13.65 0.34 15.3 0 17 C-0.33 17 -0.66 17 -1 17 C-1.02691685 14.54159395 -1.04679802 12.08348118 -1.0625 9.625 C-1.07087891 8.92632812 -1.07925781 8.22765625 -1.08789062 7.5078125 C-1.11328125 2.2265625 -1.11328125 2.2265625 0 0 Z " fill="#5C3F3A" transform="translate(139,89)"/>
<path d="M0 0 C2.475 0.495 2.475 0.495 5 1 C5 1.66 5 2.32 5 3 C6.98 3.66 8.96 4.32 11 5 C11 5.66 11 6.32 11 7 C5.95904225 6.55520961 3.58884285 4.33845847 0 1 C0 0.67 0 0.34 0 0 Z " fill="#571A07" transform="translate(79,17)"/>
<path d="M0 0 C1.48206495 0.254496 2.96068615 0.52911762 4.4375 0.8125 C5.67306641 1.03873047 5.67306641 1.03873047 6.93359375 1.26953125 C7.95646484 1.63111328 7.95646484 1.63111328 9 2 C9.33 2.99 9.66 3.98 10 5 C3.375 4.25 3.375 4.25 0 2 C0 1.34 0 0.68 0 0 Z " fill="#49190C" transform="translate(41,127)"/>
<path d="M0 0 C3.63 0 7.26 0 11 0 C10.67 1.98 10.34 3.96 10 6 C9.67 4.68 9.34 3.36 9 2 C6.03 2 3.06 2 0 2 C0 1.34 0 0.68 0 0 Z " fill="#411810" transform="translate(14,84)"/>
<path d="M0 0 C4.49652778 -0.36458333 4.49652778 -0.36458333 6.8125 1.3125 C8 3 8 3 8 6 C7.01 6 6.02 6 5 6 C5 5.34 5 4.68 5 4 C2.525 3.01 2.525 3.01 0 2 C0 1.34 0 0.68 0 0 Z " fill="#482C28" transform="translate(120,137)"/>
<path d="M0 0 C0 0.99 0 1.98 0 3 C-5.45769231 6.10096154 -5.45769231 6.10096154 -8.203125 5.58984375 C-8.79609375 5.39519531 -9.3890625 5.20054687 -10 5 C-8.71186658 4.16121545 -7.41936744 3.32913217 -6.125 2.5 C-5.40570313 2.0359375 -4.68640625 1.571875 -3.9453125 1.09375 C-2 0 -2 0 0 0 Z " fill="#D38048" transform="translate(129,126)"/>
<path d="M0 0 C2.97 0 5.94 0 9 0 C7.35 1.65 5.7 3.3 4 5 C2 3.625 2 3.625 0 2 C0 1.34 0 0.68 0 0 Z " fill="#D38144" transform="translate(79,13)"/>
<path d="M0 0 C-2.88035092 2.24027294 -5.84866512 4.16172132 -9 6 C-9.33 5.01 -9.66 4.02 -10 3 C-7.29536552 -0.8183075 -4.37912428 -0.24787496 0 0 Z " fill="#43170E" transform="translate(109,136)"/>
<path d="M0 0 C2.96865509 2.54456151 4.3619751 5.48994665 6 9 C5.01 9.33 4.02 9.66 3 10 C0.59185923 6.48812804 -0.36629408 4.27343092 0 0 Z " fill="#381B15" transform="translate(23,109)"/>
<path d="M0 0 C0.66 0 1.32 0 2 0 C2.33 3.3 2.66 6.6 3 10 C2.01 10 1.02 10 0 10 C0 6.7 0 3.4 0 0 Z " fill="#48180C" transform="translate(51,12)"/>
<path d="M0 0 C2.875 0.8125 2.875 0.8125 4.875 2.8125 C0.79056885 4.34416168 -2.91955657 3.44331652 -7.125 2.8125 C-4.57630895 0.36183553 -3.6094771 -0.21656863 0 0 Z " fill="#521907" transform="translate(82.125,140.1875)"/>
<path d="M0 0 C1.65 0 3.3 0 5 0 C5 1.65 5 3.3 5 5 C7.97 5.495 7.97 5.495 11 6 C11 6.33 11 6.66 11 7 C6.98195309 7.84098656 3.98196457 8.05404945 0 7 C1.32 6.67 2.64 6.34 4 6 C4 4.35 4 2.7 4 1 C2.68 0.67 1.36 0.34 0 0 Z " fill="#78554B" transform="translate(102,35)"/>
<path d="M0 0 C0.66 0 1.32 0 2 0 C2 2.97 2 5.94 2 9 C1.67 9 1.34 9 1 9 C1 7.35 1 5.7 1 4 C-1.97 3.67 -4.94 3.34 -8 3 C-8 2.67 -8 2.34 -8 2 C-6.865625 1.855625 -5.73125 1.71125 -4.5625 1.5625 C-1.19222799 1.38828522 -1.19222799 1.38828522 0 0 Z " fill="#45180B" transform="translate(106,31)"/>
<path d="M0 0 C7.75 0.75 7.75 0.75 10 3 C7.69 3.33 5.38 3.66 3 4 C2.67 3.01 2.34 2.02 2 1 C1.34 0.67 0.68 0.34 0 0 Z " fill="#D57A3E" transform="translate(39,130)"/>
<path d="M0 0 C4.875 4.75 4.875 4.75 6 7 C4.68 7.33 3.36 7.66 2 8 C0.4375 6.25 0.4375 6.25 -1 4 C-0.6875 1.75 -0.6875 1.75 0 0 Z " fill="#60240D" transform="translate(127,72)"/>
<path d="M0 0 C0.66 0 1.32 0 2 0 C2.33 3.3 2.66 6.6 3 10 C2.01 10 1.02 10 0 10 C0 6.7 0 3.4 0 0 Z " fill="#451F18" transform="translate(4,59)"/>
<path d="M0 0 C0.9075 0.391875 1.815 0.78375 2.75 1.1875 C1.76 2.6725 1.76 2.6725 0.75 4.1875 C-1.89 3.5275 -4.53 2.8675 -7.25 2.1875 C-4.52596974 -0.53653026 -3.86366821 -0.96591705 0 0 Z " fill="#5F2F1F" transform="translate(61.25,3.8125)"/>
<path d="M0 0 C1.125 3.75 1.125 3.75 0 6 C0.66 6 1.32 6 2 6 C2.33 5.01 2.66 4.02 3 3 C2.125 7.75 2.125 7.75 1 10 C0.34 10 -0.32 10 -1 10 C-1.125 3.375 -1.125 3.375 0 0 Z " fill="#67504D" transform="translate(23,144)"/>
<path d="M0 0 C4.75 1.875 4.75 1.875 7 3 C7 3.66 7 4.32 7 5 C4.03 4.505 4.03 4.505 1 4 C0.67 2.68 0.34 1.36 0 0 Z " fill="#452824" transform="translate(35,149)"/>
<path d="M0 0 C0.33 0 0.66 0 1 0 C1.33 3.63 1.66 7.26 2 11 C1.01 11.66 0.02 12.32 -1 13 C-1.33 11.02 -1.66 9.04 -2 7 C-1.67 7 -1.34 7 -1 7 C-0.67 4.69 -0.34 2.38 0 0 Z " fill="#6F5551" transform="translate(23,99)"/>
<path d="M0 0 C0.33 0 0.66 0 1 0 C1.625 2.875 1.625 2.875 2 6 C0 8 0 8 -3.625 8.125 C-4.73875 8.08375 -5.8525 8.0425 -7 8 C-6.38125 7.71125 -5.7625 7.4225 -5.125 7.125 C-2.86674235 6.06279958 -2.86674235 6.06279958 -1 4 C-0.3574765 1.93125966 -0.3574765 1.93125966 0 0 Z " fill="#CC7C48" transform="translate(62,90)"/>
<path d="M0 0 C0.66 0.33 1.32 0.66 2 1 C2.625 3.5625 2.625 3.5625 3 6 C2.34 6 1.68 6 1 6 C0.67 6.99 0.34 7.98 0 9 C-0.87890625 2.84765625 -0.87890625 2.84765625 -1 1 C-0.67 0.67 -0.34 0.34 0 0 Z " fill="#633728" transform="translate(53,22)"/>
<path d="M0 0 C-0.66 1.32 -1.32 2.64 -2 4 C-4.64 3.67 -7.28 3.34 -10 3 C-10 2.67 -10 2.34 -10 2 C-3.375 0 -3.375 0 0 0 Z " fill="#5B281A" transform="translate(89,121)"/>
<path d="M0 0 C0 0.99 0 1.98 0 3 C-1.65 3.66 -3.3 4.32 -5 5 C-5.33 4.01 -5.66 3.02 -6 2 C-3 0 -3 0 0 0 Z " fill="#503533" transform="translate(127,149)"/>
<path d="M0 0 C0.33 0.66 0.66 1.32 1 2 C1.99 2.33 2.98 2.66 4 3 C2.02 3.99 0.04 4.98 -2 6 C-2 5.34 -2 4.68 -2 4 C-2.66 3.67 -3.32 3.34 -4 3 C-2.68 2.01 -1.36 1.02 0 0 Z " fill="#613226" transform="translate(78,110)"/>
<path d="M0 0 C1.98 0.66 3.96 1.32 6 2 C6 2.99 6 3.98 6 5 C3.5625 4.1875 3.5625 4.1875 1 3 C0.67 2.01 0.34 1.02 0 0 Z " fill="#401006" transform="translate(72,11)"/>
<path d="M0 0 C2.475 0.495 2.475 0.495 5 1 C5 2.32 5 3.64 5 5 C2.5 3.625 2.5 3.625 0 2 C0 1.34 0 0.68 0 0 Z " fill="#451B14" transform="translate(57,137)"/>
<path d="M0 0 C1.67542976 0.28604898 3.34385343 0.61781233 5 1 C5.33 2.32 5.66 3.64 6 5 C3.08482708 3.92598892 1.22189824 3.22189824 -1 1 C-0.67 0.67 -0.34 0.34 0 0 Z " fill="#DD9A69" transform="translate(101,96)"/>
<path d="M0 0 C0.99 0.33 1.98 0.66 3 1 C2.34 1 1.68 1 1 1 C1.5259375 1.86625 1.5259375 1.86625 2.0625 2.75 C3.14917407 5.35801776 2.93065133 6.39417629 2 9 C-0.29013653 5.5647952 -0.17842973 4.014669 0 0 Z " fill="#CF946B" transform="translate(71,46)"/>
</svg>
